<svg width="99" height="35" viewBox="0 0 99 35" fill="none" xmlns="http://www.w3.org/2000/svg">
  <g opacity="0.732903">
    <path d="M49.3409 9.1181C49.4469 9.1071 49.5559 9.1011 49.6659 9.1011C50.9309 9.1011 52.0149 9.8701 52.4789 10.9661" stroke="white" stroke-width="0.8"/>
    <path d="M46.9669 13.582C46.7409 13.156 46.6129 12.67 46.6129 12.154C46.6129 10.798 47.4979 9.647 48.7219 9.25" stroke="white" stroke-width="0.8"/>
    <path d="M52.7052 11.8632C52.7142 11.9592 52.7192 12.0552 52.7192 12.1542C52.7192 13.8402 51.3512 15.2072 49.6662 15.2072C48.8902 15.2072 48.1812 14.9172 47.6422 14.4392" stroke="white" stroke-width="0.8"/>
    <path fill-rule="evenodd" clip-rule="evenodd" d="M50.8936 10.9111C50.8936 11.5981 50.3376 12.1541 49.6516 12.1541C48.9646 12.1541 48.4086 11.5981 48.4086 10.9111C48.4086 10.2241 48.9646 9.66809 49.6516 9.66809C50.3376 9.66809 50.8936 10.2241 50.8936 10.9111Z" stroke="white" stroke-width="0.8"/>
    <path fill-rule="evenodd" clip-rule="evenodd" d="M49.6661 18.0351H48.3491C47.2921 18.0351 46.3261 18.6291 45.8491 19.5711L44.3541 22.5221C44.1171 22.9881 43.9951 23.5031 43.9951 24.0251V24.9961C43.9951 25.4561 44.0901 25.9101 44.2741 26.3311L45.8731 29.9831C46.3311 31.0281 47.3631 31.7041 48.5041 31.7041H50.8371C51.9791 31.7041 53.0141 31.0261 53.4701 29.9781L55.0601 26.3281C55.2421 25.9091 55.3371 25.4571 55.3371 25.0001V24.0211C55.3371 23.5021 55.2151 22.9891 54.9811 22.5251L53.4951 19.5761C53.0191 18.6311 52.0511 18.0351 50.9921 18.0351H49.6661Z" stroke="white" stroke-width="0.8"/>
    <path fill-rule="evenodd" clip-rule="evenodd" d="M54.9864 22.54C55.0864 22.74 54.8664 22.95 54.6664 22.84L53.1754 21.96C52.8454 21.76 52.4764 21.66 52.0864 21.66H47.2064C46.8164 21.66 46.4364 21.769 46.1064 21.97L44.6664 22.83C44.4764 22.94 44.2464 22.73 44.3454 22.53L45.8364 19.6C46.3164 18.64 47.3064 18.03 48.3764 18.03H50.9564C52.0364 18.03 53.0264 18.64 53.5064 19.6L54.9864 22.54Z" fill="white"/>
    <path fill-rule="evenodd" clip-rule="evenodd" d="M44.6661 22.83L46.1061 21.97C46.4371 21.769 46.8161 21.66 47.2061 21.66H52.0861C52.4771 21.66 52.8461 21.76 53.1761 21.96L54.6661 22.84C54.8661 22.95 55.0861 22.74 54.9861 22.54L53.5061 19.6C53.0261 18.64 52.0361 18.03 50.9561 18.03H48.3761C47.3071 18.03 46.3161 18.64 45.8361 19.6L44.3461 22.53C44.2461 22.73 44.4771 22.94 44.6661 22.83Z" stroke="white" stroke-width="0.8"/>
    <path d="M58.1895 13.0859H52.5735" stroke="white" stroke-width="0.8"/>
    <path d="M47.2403 15.1279L49.6663 15.2069L97.6573 13.6449C97.8073 13.6399 97.9283 13.5159 97.9283 13.3649C97.9283 13.2109 97.8033 13.0859 97.6483 13.0859H59.6563" stroke="white" stroke-width="0.8"/>
    <path d="M46.7589 13.0859H1.65491C1.49991 13.0859 1.37491 13.2109 1.37491 13.3649C1.37491 13.5159 1.49491 13.6399 1.64491 13.6449L45.6049 15.0739" stroke="white" stroke-width="0.8"/>
    <path d="M58.1798 31.5117L54.5018 29.0307L54.0758 29.7497L58.1798 32.1637" stroke="white" stroke-width="0.8"/>
    <path fill-rule="evenodd" clip-rule="evenodd" d="M58.7696 33.6874V33.6874C58.4446 33.6874 58.1796 33.4234 58.1796 33.0984V31.6244C58.1796 31.2984 58.4446 31.0354 58.7696 31.0354C59.0946 31.0354 59.3586 31.2984 59.3586 31.6244V33.0984C59.3586 33.4234 59.0946 33.6874 58.7696 33.6874Z" stroke="white" stroke-width="0.8"/>
    <path d="M41.1905 31.5117L44.8685 29.0307L45.0765 29.7497L41.1905 32.1637" stroke="white" stroke-width="0.8"/>
    <path fill-rule="evenodd" clip-rule="evenodd" d="M40.6017 33.8535V33.8535C40.9267 33.8535 41.1907 33.5895 41.1907 33.2645V31.6245C41.1907 31.2985 40.9267 31.0355 40.6017 31.0355C40.2767 31.0355 40.0127 31.2985 40.0127 31.6245V33.2645C40.0127 33.5895 40.2767 33.8535 40.6017 33.8535Z" stroke="white" stroke-width="0.8"/>
    <path d="M43.5811 18.4755L46.7881 18.5095" stroke="white" stroke-width="0.8"/>
    <path d="M42.8995 18.0351H34.6235C34.5275 18.0351 34.4495 18.1121 34.4495 18.2081C34.4495 18.3041 34.5265 18.3811 34.6215 18.3821L42.7955 18.4681" stroke="white" stroke-width="0.8"/>
    <path d="M52.5528 18.5097L64.6818 18.3817C64.7768 18.3807 64.8528 18.3037 64.8528 18.2077C64.8528 18.1127 64.7758 18.0347 64.6798 18.0347H44.3308" stroke="white" stroke-width="0.8"/>
    <path d="M49.3409 9.10149L49.4449 6.62949C49.4509 6.51149 49.5479 6.41849 49.6659 6.41849H49.6749C49.7929 6.41849 49.8899 6.51149 49.8949 6.62949L49.9979 9.10149" stroke="white" stroke-width="0.8"/>
    <path d="M50.253 15.207L50.371 18.035H48.96L49.08 15.207" stroke="white" stroke-width="0.8"/>
    <path fill-rule="evenodd" clip-rule="evenodd" d="M49.669 27.9628V27.9628C48.009 27.9628 46.663 26.6158 46.663 24.9558V24.7458C46.663 24.0158 47.255 23.4228 47.985 23.4228H51.353C52.084 23.4228 52.676 24.0158 52.676 24.7458V24.9558C52.676 26.6158 51.33 27.9628 49.669 27.9628Z" stroke="white" stroke-width="0.8"/>
    <path d="M49.0616 9.8486L46.6326 5.5766C46.3786 5.1296 46.2446 4.6256 46.2406 4.1126L46.2236 1.6216C46.2216 1.4416 46.3516 1.2856 46.5296 1.2556C46.7116 1.2236 46.8896 1.3316 46.9456 1.5086L49.5346 9.7116" stroke="white" stroke-width="0.8"/>
    <path fill-rule="evenodd" clip-rule="evenodd" d="M49.0499 12.0331L46.5689 16.2751C46.3099 16.7191 45.9419 17.0881 45.4979 17.3481L43.3519 18.6101C43.1959 18.7021 42.9969 18.6681 42.8809 18.5291C42.7629 18.3871 42.7669 18.1791 42.8919 18.0431L48.6949 11.6921L49.0499 12.0331Z" stroke="white" stroke-width="0.8"/>
    <path fill-rule="evenodd" clip-rule="evenodd" d="M50.9249 10.9745L55.8399 11.0065C56.3539 11.0095 56.8579 11.1445 57.3039 11.3985L59.4689 12.6285C59.6259 12.7175 59.6959 12.9085 59.6339 13.0775C59.5699 13.2505 59.3879 13.3505 59.2069 13.3105L50.8079 11.4525L50.9249 10.9745Z" stroke="white" stroke-width="0.8"/>
  </g>
</svg>
