<svg width="143" height="33" viewBox="0 0 143 33" fill="none" xmlns="http://www.w3.org/2000/svg">
  <g opacity="0.732903">
    <path fill-rule="evenodd" clip-rule="evenodd" d="M72.3598 11.8603H74.3458C74.6698 11.8603 74.9878 11.9273 75.2818 12.0623C76.0008 12.3943 77.3268 13.1983 78.3938 14.9283C79.6888 17.0283 79.8358 19.0903 79.8498 19.6833C79.8528 19.8013 79.8708 19.9183 79.9048 20.0313L79.9138 20.0593C79.9818 20.2863 80.1118 20.4883 80.2878 20.6443L80.6988 21.0093C80.9708 21.2523 81.1278 21.5973 81.1288 21.9623L81.1378 25.2303C81.1388 25.7563 80.8188 26.2283 80.3308 26.4223L71.9358 28.8413C71.6288 28.9643 71.2868 28.9633 70.9808 28.8383L62.4208 26.4333C61.9338 26.2353 61.6178 25.7583 61.6248 25.2333L61.6648 21.9613C61.6688 21.6023 61.8228 21.2623 62.0898 21.0233L62.5038 20.6543C62.6788 20.4973 62.8078 20.2953 62.8758 20.0683C62.9138 19.9393 62.9328 19.8053 62.9288 19.6713C62.9118 19.0463 62.9568 16.9583 64.1668 14.8193C65.1608 13.0603 66.5968 12.3213 67.3968 12.0313C67.7148 11.9153 68.0508 11.8603 68.3898 11.8603H70.4258V2.41631C70.4258 2.37031 70.4028 2.28131 70.3648 2.25631L69.6308 1.75031C69.5348 1.68331 69.4218 1.64831 69.3068 1.64831H51.8948C51.6298 1.64831 51.4138 1.43231 51.4138 1.16831C51.4138 0.90231 51.6298 0.68631 51.8948 0.68631H90.9508C91.2158 0.68631 91.4328 0.90231 91.4328 1.16831C91.4328 1.43231 91.2158 1.64831 90.9508 1.64831H73.6168C73.4128 1.64831 73.2138 1.71331 73.0478 1.83231L72.4618 2.25231C72.3978 2.29631 72.3598 2.36931 72.3598 2.44631V11.8603Z" stroke="white" stroke-width="0.75"/>
    <path fill-rule="evenodd" clip-rule="evenodd" d="M71.4188 32.6249V32.6249C70.9078 32.6249 70.4908 32.2069 70.4908 31.6969V29.8599C70.4908 29.3509 70.9078 28.9329 71.4188 28.9329C71.9288 28.9329 72.3468 29.3509 72.3468 29.8599V31.6969C72.3468 32.2069 71.9288 32.6249 71.4188 32.6249Z" stroke="white" stroke-width="0.75"/>
    <path fill-rule="evenodd" clip-rule="evenodd" d="M79.9843 32.5194V32.5194C79.4733 32.5194 79.0563 32.1014 79.0563 31.5914V28.7554C79.0563 28.2454 79.4733 27.8274 79.9843 27.8274C80.4953 27.8274 80.9123 28.2454 80.9123 28.7554V31.5914C80.9123 32.1014 80.4953 32.5194 79.9843 32.5194Z" stroke="white" stroke-width="0.75"/>
    <path fill-rule="evenodd" clip-rule="evenodd" d="M78.1767 15.2148C79.6267 15.9248 79.7867 20.0648 79.7867 20.0648C79.7867 20.0648 78.2267 18.4748 76.3767 17.8338C75.6367 17.5838 72.0067 17.6238 72.0067 17.6238V14.3638C72.0067 14.3638 74.2167 14.2938 75.9267 14.4138C76.8567 14.4748 77.7967 15.0248 78.1767 15.2148Z" fill="white"/>
    <path fill-rule="evenodd" clip-rule="evenodd" d="M72.0067 14.3642C72.0067 14.3642 74.2167 14.2942 75.9267 14.4142C76.8567 14.4742 77.7967 15.0242 78.1767 15.2152C79.6267 15.9252 79.7867 20.0642 79.7867 20.0642C79.7867 20.0642 78.2267 18.4742 76.3767 17.8342C75.6367 17.5842 72.0067 17.6242 72.0067 17.6242V14.3642Z" stroke="white" stroke-width="0.75"/>
    <path fill-rule="evenodd" clip-rule="evenodd" d="M70.6967 14.3642V17.6242C70.6967 17.6242 67.0667 17.5842 66.3267 17.8342C64.4867 18.4742 62.9167 20.0642 62.9167 20.0642C62.9167 20.0642 63.0767 15.9252 64.5267 15.2152C64.9067 15.0242 65.8467 14.4742 66.7867 14.4142C68.4867 14.2942 70.6967 14.3642 70.6967 14.3642Z" fill="white"/>
    <path fill-rule="evenodd" clip-rule="evenodd" d="M70.6967 14.3642C70.6967 14.3642 68.4867 14.2942 66.7867 14.4142C65.8467 14.4742 64.9067 15.0242 64.5267 15.2152C63.0767 15.9252 62.9167 20.0642 62.9167 20.0642C62.9167 20.0642 64.4867 18.4742 66.3267 17.8342C67.0667 17.5842 70.6967 17.6242 70.6967 17.6242V14.3642Z" stroke="white" stroke-width="0.75"/>
    <path fill-rule="evenodd" clip-rule="evenodd" d="M62.6552 32.5194V32.5194C62.1452 32.5194 61.7272 32.1014 61.7272 31.5914V28.7554C61.7272 28.2454 62.1452 27.8274 62.6552 27.8274C63.1662 27.8274 63.5832 28.2454 63.5832 28.7554V31.5914C63.5832 32.1014 63.1662 32.5194 62.6552 32.5194Z" stroke="white" stroke-width="0.75"/>
    <path d="M80.2934 20.6903C80.2934 20.6903 77.4454 20.7483 76.4094 20.8293C75.5484 20.8963 74.5204 21.3293 74.0364 21.8133" stroke="white" stroke-width="0.75"/>
    <path d="M62.4833 20.6903C62.4833 20.6903 65.3313 20.7483 66.3663 20.8293C67.2283 20.8963 68.2563 21.3293 68.7403 21.8133" stroke="white" stroke-width="0.75"/>
    <path d="M73.4686 22.5595L80.8236 26.0355" stroke="white" stroke-width="0.75"/>
    <path d="M69.2655 22.6064L61.9815 26.0324" stroke="white" stroke-width="0.75"/>
    <path d="M72.4203 28.6444L72.3853 26.5504L71.6813 25.9014C71.6813 25.9014 71.6593 25.1304 71.7283 24.1854C71.7773 23.5084 72.0563 23.2064 72.2113 23.0874C72.2613 23.0484 72.3183 23.0224 72.3793 23.0064C73.2423 22.7784 74.0363 22.3224 74.0363 21.8134C74.0363 21.1004 72.8383 20.2654 71.4573 20.2654C70.0763 20.2654 68.8013 21.1004 68.8013 21.8134C68.8013 22.3314 69.4763 22.8114 70.3763 23.0354C70.3763 23.0354 71.0193 23.0934 71.1563 24.1854C71.2943 25.2774 71.2253 25.8924 71.2253 25.8924L70.4943 26.5454V28.6444" stroke="white" stroke-width="0.75"/>
    <path d="M83.4994 11.8603H74.1284" stroke="white" stroke-width="0.75"/>
    <path d="M84.8251 15.0907L141.903 13.5097C141.845 12.5827 141.076 11.8607 140.146 11.8607H86.3311" stroke="white" stroke-width="0.75"/>
    <path d="M78.5741 15.2636L83.7451 15.1206" stroke="white" stroke-width="0.75"/>
    <path d="M59.31 11.8603H70.22" stroke="white" stroke-width="0.75"/>
    <path d="M56.7382 15.0663L0.392212 13.5093C0.436212 12.5873 1.19721 11.8603 2.12221 11.8603H56.4402" stroke="white" stroke-width="0.75"/>
    <path d="M63.8895 15.2636L57.7545 15.0946" stroke="white" stroke-width="0.75"/>
    <path d="M65.9071 20.7167C66.6621 18.7817 71.4851 18.8737 71.4851 18.8737H71.4761C71.4761 18.8737 76.3941 18.7727 77.1641 20.7077" stroke="white" stroke-width="0.5"/>
    <path d="M83.6381 10.4247L80.0031 8.08171C79.5961 7.81971 79.2621 7.45571 79.0341 7.02871L77.9311 4.95071C77.8511 4.79971 77.8921 4.61271 78.0281 4.50971C78.1671 4.40371 78.3631 4.41671 78.4861 4.53971L84.0001 10.0357" stroke="white" stroke-width="0.5"/>
    <path d="M84.9154 12.8222L84.7484 17.1652C84.7264 17.6492 84.5794 18.1192 84.3224 18.5302L83.0774 20.5252C82.9864 20.6712 82.8054 20.7282 82.6474 20.6632C82.4864 20.5962 82.3984 20.4202 82.4434 20.2522L84.3844 12.7252" stroke="white" stroke-width="0.5"/>
    <path d="M86.3324 10.6923L90.2064 8.70029C90.6384 8.47829 91.1194 8.37129 91.6034 8.38829L93.9534 8.47129C94.1244 8.47729 94.2654 8.60629 94.2874 8.77529C94.3104 8.94929 94.2004 9.11229 94.0324 9.15729L86.4454 11.2043" stroke="white" stroke-width="0.5"/>
    <path fill-rule="evenodd" clip-rule="evenodd" d="M86.4452 11.2753C86.4452 12.1293 85.7602 12.8223 84.9152 12.8223C84.0702 12.8223 83.3852 12.1293 83.3852 11.2753C83.3852 10.4213 84.0702 9.7283 84.9152 9.7283C85.7602 9.7283 86.4452 10.4213 86.4452 11.2753Z" stroke="white" stroke-width="0.5"/>
    <path d="M56.58 10.4247L52.945 8.08171C52.538 7.81971 52.204 7.45571 51.976 7.02871L50.873 4.95071C50.793 4.79971 50.834 4.61271 50.97 4.50971C51.109 4.40371 51.305 4.41671 51.428 4.53971L56.942 10.0357" stroke="white" stroke-width="0.5"/>
    <path d="M57.8573 12.8222L57.6903 17.1652C57.6683 17.6492 57.5213 18.1192 57.2643 18.5302L56.0193 20.5252C55.9283 20.6712 55.7473 20.7282 55.5893 20.6632C55.4283 20.5962 55.3403 20.4202 55.3853 20.2522L57.3263 12.7252" stroke="white" stroke-width="0.5"/>
    <path d="M59.2743 10.6923L63.1483 8.70029C63.5803 8.47829 64.0613 8.37129 64.5453 8.38829L66.8953 8.47129C67.0663 8.47729 67.2073 8.60629 67.2293 8.77529C67.2523 8.94929 67.1423 9.11229 66.9743 9.15729L59.3873 11.2043" stroke="white" stroke-width="0.5"/>
    <path fill-rule="evenodd" clip-rule="evenodd" d="M59.3871 11.2753C59.3871 12.1293 58.7021 12.8223 57.8571 12.8223C57.0121 12.8223 56.3271 12.1293 56.3271 11.2753C56.3271 10.4213 57.0121 9.7283 57.8571 9.7283C58.7021 9.7283 59.3871 10.4213 59.3871 11.2753Z" stroke="white" stroke-width="0.5"/>
  </g>
</svg>
