<svg width="27" height="18" viewBox="0 0 27 18" fill="none" xmlns="http://www.w3.org/2000/svg">
  <path fill-rule="evenodd" clip-rule="evenodd" d="M3.0036 1C1.89703 1 1 1.8945 1 2.99405V15.006C1 16.1072 1.88977 17 3.0036 17H23.9964C25.103 17 26 16.1055 26 15.006V2.99405C26 1.89276 25.1102 1 23.9964 1H3.0036ZM2.315 2.27393C2.12103 2.4574 2 2.71771 2 3.00687V14.9932C2 15.2829 2.11914 15.544 2.31311 15.7278L10.05 9L2.315 2.27393ZM25 3.00687C25 2.71713 24.8809 2.45596 24.6869 2.27228L16.95 9L24.685 15.7261C24.879 15.5426 25 15.2823 25 14.9932V3.00687ZM16.2018 9.65057L23.5 16H3.5L10.7982 9.65057L13.5 12L16.2018 9.65057ZM23.5 2L13.5 10.7L3.5 2H23.5Z" fill="#122B36"/>
  <path d="M2.315 2.27393L2.47905 2.08527L2.30794 1.93649L2.14321 2.0923L2.315 2.27393ZM2.31311 15.7278L2.1412 15.9093L2.30593 16.0653L2.47716 15.9164L2.31311 15.7278ZM10.05 9L10.214 9.18865L10.431 9L10.214 8.81135L10.05 9ZM24.6869 2.27228L24.8588 2.09075L24.6941 1.93475L24.5228 2.08363L24.6869 2.27228ZM16.95 9L16.786 8.81135L16.569 9L16.786 9.18865L16.95 9ZM24.685 15.7261L24.521 15.9148L24.6921 16.0636L24.8568 15.9077L24.685 15.7261ZM23.5 16V16.25H24.1682L23.6641 15.8114L23.5 16ZM16.2018 9.65057L16.3659 9.46196L16.2019 9.31924L16.0378 9.46192L16.2018 9.65057ZM3.5 16L3.33591 15.8114L2.83176 16.25H3.5V16ZM10.7982 9.65057L10.9622 9.46192L10.7981 9.31924L10.6341 9.46196L10.7982 9.65057ZM13.5 12L13.336 12.1887L13.5 12.3313L13.664 12.1887L13.5 12ZM13.5 10.7L13.3359 10.8886L13.5 11.0314L13.6641 10.8886L13.5 10.7ZM23.5 2L23.6641 2.18861L24.1682 1.75H23.5V2ZM3.5 2V1.75H2.83176L3.33591 2.18861L3.5 2ZM1.25 2.99405C1.25 2.03355 2.03412 1.25 3.0036 1.25V0.75C1.75995 0.75 0.75 1.75545 0.75 2.99405H1.25ZM1.25 15.006V2.99405H0.75V15.006H1.25ZM3.0036 16.75C2.02731 16.75 1.25 15.9686 1.25 15.006H0.75C0.75 16.2458 1.75223 17.25 3.0036 17.25V16.75ZM23.9964 16.75H3.0036V17.25H23.9964V16.75ZM25.75 15.006C25.75 15.9664 24.9659 16.75 23.9964 16.75V17.25C25.2401 17.25 26.25 16.2446 26.25 15.006H25.75ZM25.75 2.99405V15.006H26.25V2.99405H25.75ZM23.9964 1.25C24.9727 1.25 25.75 2.03137 25.75 2.99405H26.25C26.25 1.75416 25.2478 0.75 23.9964 0.75V1.25ZM3.0036 1.25H23.9964V0.75H3.0036V1.25ZM2.25 3.00687C2.25 2.78897 2.34087 2.59358 2.4868 2.45555L2.14321 2.0923C1.90119 2.32122 1.75 2.64645 1.75 3.00687H2.25ZM2.25 14.9932V3.00687H1.75V14.9932H2.25ZM2.48502 15.5462C2.34003 15.4089 2.25 15.2131 2.25 14.9932H1.75C1.75 15.3527 1.89825 15.6792 2.1412 15.9093L2.48502 15.5462ZM9.88594 8.81135L2.14907 15.5391L2.47716 15.9164L10.214 9.18865L9.88594 8.81135ZM2.15096 2.46258L9.88594 9.18865L10.214 8.81135L2.47905 2.08527L2.15096 2.46258ZM24.515 2.4538C24.66 2.59108 24.75 2.78697 24.75 3.00687H25.25C25.25 2.6473 25.1018 2.32084 24.8588 2.09075L24.515 2.4538ZM17.1141 9.18865L24.8509 2.46093L24.5228 2.08363L16.786 8.81135L17.1141 9.18865ZM24.849 15.5375L17.1141 8.81135L16.786 9.18865L24.521 15.9148L24.849 15.5375ZM24.75 14.9932C24.75 15.211 24.6591 15.4064 24.5132 15.5445L24.8568 15.9077C25.0988 15.6788 25.25 15.3536 25.25 14.9932H24.75ZM24.75 3.00687V14.9932H25.25V3.00687H24.75ZM23.6641 15.8114L16.3659 9.46196L16.0378 9.83918L23.3359 16.1886L23.6641 15.8114ZM3.5 16.25H23.5V15.75H3.5V16.25ZM10.6341 9.46196L3.33591 15.8114L3.66409 16.1886L10.9622 9.83918L10.6341 9.46196ZM13.664 11.8113L10.9622 9.46192L10.6341 9.83922L13.336 12.1887L13.664 11.8113ZM16.0378 9.46192L13.336 11.8113L13.664 12.1887L16.3659 9.83922L16.0378 9.46192ZM13.6641 10.8886L23.6641 2.18861L23.3359 1.81139L13.3359 10.5114L13.6641 10.8886ZM3.33591 2.18861L13.3359 10.8886L13.6641 10.5114L3.66409 1.81139L3.33591 2.18861ZM23.5 1.75H3.5V2.25H23.5V1.75Z" fill="#122B36"/>
</svg>
