<svg width="24" height="23" viewBox="0 0 24 23" fill="none" xmlns="http://www.w3.org/2000/svg">
<path fill-rule="evenodd" clip-rule="evenodd" d="M5.25135 2.96491C5.58879 2.57947 6.03087 2.37595 6.52719 2.37595L6.58335 2.37691C7.98543 2.41819 9.32703 3.98059 9.57375 5.85979C9.71247 6.91195 9.47823 7.90123 8.94927 8.50411C8.61087 8.89051 8.17503 9.09403 7.65855 9.09403H7.65759H7.63503C6.26175 9.05179 4.89135 7.42987 4.64607 5.55307C4.50831 4.50379 4.72911 3.56059 5.25135 2.96491ZM3.28613 17.0563C3.28613 15.5649 5.18069 14.2569 7.34021 14.2569H7.39829C7.86821 14.2627 8.32661 14.3318 8.75861 14.4647C8.90693 14.5665 9.04997 14.6644 9.18725 14.7575C10.1876 15.4391 10.8485 15.8889 11.0324 16.6108C11.0756 16.7927 11.0972 16.9747 11.0972 17.1508C11.0972 19.0079 9.71237 19.9492 6.97973 19.9492C4.90853 19.9492 3.28613 18.6791 3.28613 17.0563ZM11.2978 12.3638C10.5394 11.8262 9.85008 11.0385 9.83808 10.7966C9.83808 10.3559 9.87744 10.1452 10.8658 9.37531C12.1435 8.37499 12.8472 7.05979 12.8472 5.67019C12.8472 4.41019 12.4622 3.29083 11.807 2.50459H12.3154C12.421 2.50459 12.5237 2.47195 12.6077 2.41051L14.0261 1.38283C14.2022 1.25659 14.2762 1.03147 14.209 0.82555C14.1413 0.62011 13.9512 0.47995 13.7347 0.47995H7.39104C6.69696 0.47995 5.99184 0.60235 5.29968 0.84043C2.988 1.63771 1.37136 3.60763 1.37136 5.62987C1.37136 8.49499 3.59088 10.6665 6.55776 10.7347C6.49968 10.9617 6.4704 11.1854 6.4704 11.4047C6.4704 11.8463 6.58224 12.2649 6.81264 12.6686H6.73104C3.90288 12.6686 1.35024 14.0563 0.38112 16.1212C0.12864 16.6583 0 17.2012 0 17.7374C0 18.2587 0.13392 18.7603 0.39648 19.2316C1.0056 20.3212 2.3136 21.1665 4.08144 21.6129C4.99392 21.8438 5.97456 21.9609 6.99264 21.9609C7.90752 21.9609 8.77968 21.8428 9.58608 21.6096C12.1003 20.8795 13.7261 19.0286 13.7261 16.8921C13.7256 14.842 13.0666 13.6147 11.2978 12.3638Z" fill="#122B36"/>
<path fill-rule="evenodd" clip-rule="evenodd" d="M23.4146 9.20212H19.8088V5.59732C19.8088 5.32228 19.5856 5.0986 19.3111 5.0986H18.2843C18.0079 5.0986 17.7847 5.32228 17.7847 5.59732V9.20212H14.1789C13.9048 9.20212 13.6807 9.42628 13.6807 9.7018V10.7285C13.6807 11.004 13.9048 11.2272 14.1789 11.2272H17.7847V14.834C17.7847 15.1095 18.0079 15.3327 18.2843 15.3327H19.3111C19.5856 15.3327 19.8088 15.1095 19.8088 14.834V11.2268H23.4146C23.6891 11.2268 23.9133 11.0036 23.9133 10.728V9.70132C23.9133 9.4258 23.6891 9.20212 23.4146 9.20212Z" fill="#122B36"/>
</svg>
