<svg width="60" height="60" viewBox="0 0 60 60" fill="none" xmlns="http://www.w3.org/2000/svg">
<path opacity="0.01" fill-rule="evenodd" clip-rule="evenodd" d="M0 0H60V60H0V0Z" fill="white"/>
<path d="M59 30C59 46.0163 46.0163 59 30 59C13.9837 59 1 46.0163 1 30C1 13.9837 13.9837 1 30 1C46.0163 1 59 13.9837 59 30Z" stroke="white" stroke-width="2"/>
<path d="M50.5493 30C50.5493 41.349 41.349 50.5493 30 50.5493C18.6509 50.5493 9.45068 41.349 9.45068 30C9.45068 18.6509 18.6509 9.45068 30 9.45068C41.349 9.45068 50.5493 18.6509 50.5493 30Z" stroke="white" stroke-width="2"/>
<path d="M42.0986 30C42.0986 36.6819 36.6818 42.0986 30 42.0986C23.3181 42.0986 17.9014 36.6819 17.9014 30C17.9014 23.3182 23.3181 17.9014 30 17.9014C36.6818 17.9014 42.0986 23.3182 42.0986 30Z" stroke="white" stroke-width="2"/>
<path fill-rule="evenodd" clip-rule="evenodd" d="M29.9999 34.6479C32.5669 34.6479 34.6478 32.567 34.6478 30C34.6478 27.433 32.5669 25.3521 29.9999 25.3521C27.433 25.3521 25.3521 27.433 25.3521 30C25.3521 32.567 27.433 34.6479 29.9999 34.6479Z" fill="white"/>
</svg>
