<svg width="61" height="60" viewBox="0 0 61 60" fill="none" xmlns="http://www.w3.org/2000/svg">
<path fill-rule="evenodd" clip-rule="evenodd" d="M0 0H60V60H0V0Z" fill="white"/>
<path fill-rule="evenodd" clip-rule="evenodd" d="M31.0181 45.1065C35.3038 45.1065 38.7781 41.2771 38.7781 36.5532C38.7781 31.8294 35.3038 28 31.0181 28C26.7323 28 23.2581 31.8294 23.2581 36.5532C23.2581 41.2771 26.7323 45.1065 31.0181 45.1065Z" stroke="#122B36" stroke-width="2"/>
<path d="M24.5807 43.6L19.9355 48.4" stroke="#122B36" stroke-width="2" stroke-linecap="square"/>
<path d="M37.3871 43.6L42.0323 48.4" stroke="#122B36" stroke-width="2" stroke-linecap="square"/>
<path d="M31.9678 50C31.9678 50 38.9995 48.7308 45.5162 48.7308C48.2587 48.7308 51.001 48.9556 53.2575 49.216C56.1332 49.5478 58.8279 47.5597 58.9425 44.6672C59.0644 41.5938 59.0548 37.5466 58.5478 33.5C57.5143 25.2515 54.4131 17 54.4131 17" stroke="#122B36" stroke-width="2" stroke-linecap="square"/>
<path d="M30.0322 50C30.0322 50 23.0005 48.7308 16.4838 48.7308C13.7413 48.7308 10.999 48.9556 8.74248 49.216C5.86679 49.5478 3.17214 47.5597 3.05748 44.6672C2.93564 41.5938 2.94519 37.5466 3.4522 33.5C4.48568 25.2515 7.58687 17 7.58687 17" stroke="#122B36" stroke-width="2" stroke-linecap="square"/>
<path fill-rule="evenodd" clip-rule="evenodd" d="M4.02887 29.585C5.56222 30.0538 8.0488 26.3664 9.5828 21.3489C11.1168 16.3315 11.1173 11.884 9.58399 11.4152C8.05064 10.9464 5.56406 14.6338 4.03006 19.6513C2.49605 24.6687 2.49552 29.1162 4.02887 29.585Z" fill="#122B36"/>
<path fill-rule="evenodd" clip-rule="evenodd" d="M57.9711 29.585C56.4378 30.0538 53.9512 26.3664 52.4172 21.3489C50.8832 16.3315 50.8827 11.884 52.416 11.4152C53.9494 10.9464 56.4359 14.6338 57.9699 19.6513C59.5039 24.6687 59.5045 29.1162 57.9711 29.585Z" fill="#122B36"/>
</svg>
