<svg width="60" height="60" viewBox="0 0 60 60" fill="none" xmlns="http://www.w3.org/2000/svg">
<path fill-rule="evenodd" clip-rule="evenodd" d="M0 0H60V60H0V0Z" fill="white"/>
<path d="M10 2C10 1.44772 10.4477 1 11 1H48C48.5523 1 49 1.44772 49 2V58C49 58.5523 48.5523 59 48 59H11C10.4477 59 10 58.5523 10 58V2Z" stroke="#122B36" stroke-width="2"/>
<path d="M15 7C15 6.44772 15.4477 6 16 6H43C43.5523 6 44 6.44772 44 7V48C44 48.5523 43.5523 49 43 49H16C15.4477 49 15 48.5523 15 48V7Z" stroke="#122B36" stroke-width="2"/>
<path fill-rule="evenodd" clip-rule="evenodd" d="M30 56C31.1046 56 32 55.1046 32 54C32 52.8954 31.1046 52 30 52C28.8954 52 28 52.8954 28 54C28 55.1046 28.8954 56 30 56Z" fill="#122B36"/>
<path fill-rule="evenodd" clip-rule="evenodd" d="M29.5 4C29.7761 4 30 3.77614 30 3.5C30 3.22386 29.7761 3 29.5 3C29.2239 3 29 3.22386 29 3.5C29 3.77614 29.2239 4 29.5 4Z" fill="#122B36"/>
</svg>
