<svg width="100" height="100" viewBox="0 0 100 100" fill="none" xmlns="http://www.w3.org/2000/svg">
<g id="icon_des">
<path id="Rectangle 12" fill-rule="evenodd" clip-rule="evenodd" d="M0 0H100V100H0V0Z" fill="white"/>
<g id="Combined Shape">
<mask id="path-2-inside-1" fill="white">
<path fill-rule="evenodd" clip-rule="evenodd" d="M73 44H87V46H73V44ZM73 48H87V50H73V48ZM87 52H73V54H87V52ZM73 56H87V58H73V56ZM87 60H73V62H87V60ZM80 64H87V66H80V64Z"/>
</mask>
<path d="M87 44V43H88V44H87ZM73 44H72V43H73V44ZM87 46H88V47H87V46ZM73 46V47H72V46H73ZM87 48V47H88V48H87ZM73 48H72V47H73V48ZM87 50H88V51H87V50ZM73 50V51H72V50H73ZM73 52H72V51H73V52ZM87 52V51H88V52H87ZM73 54V55H72V54H73ZM87 54H88V55H87V54ZM87 56V55H88V56H87ZM73 56H72V55H73V56ZM87 58H88V59H87V58ZM73 58V59H72V58H73ZM73 60H72V59H73V60ZM87 60V59H88V60H87ZM73 62V63H72V62H73ZM87 62H88V63H87V62ZM87 64V63H88V64H87ZM80 64H79V63H80V64ZM87 66H88V67H87V66ZM80 66V67H79V66H80ZM87 45H73V43H87V45ZM86 46V44H88V46H86ZM73 45H87V47H73V45ZM74 44V46H72V44H74ZM87 49H73V47H87V49ZM86 50V48H88V50H86ZM73 49H87V51H73V49ZM74 48V50H72V48H74ZM73 51H87V53H73V51ZM72 54V52H74V54H72ZM87 55H73V53H87V55ZM88 52V54H86V52H88ZM87 57H73V55H87V57ZM86 58V56H88V58H86ZM73 57H87V59H73V57ZM74 56V58H72V56H74ZM73 59H87V61H73V59ZM72 62V60H74V62H72ZM87 63H73V61H87V63ZM88 60V62H86V60H88ZM87 65H80V63H87V65ZM86 66V64H88V66H86ZM80 65H87V67H80V65ZM81 64V66H79V64H81Z" fill="#122B36" mask="url(#path-2-inside-1)"/>
</g>
<g id="Combined Shape_2">
<mask id="path-4-inside-2" fill="white">
<path fill-rule="evenodd" clip-rule="evenodd" d="M34 38H32V58H28V60H32H34H38V58H34V38Z"/>
</mask>
<path d="M32 38V37H31V38H32ZM34 38H35V37H34V38ZM32 58V59H33V58H32ZM28 58V57H27V58H28ZM28 60H27V61H28V60ZM38 60V61H39V60H38ZM38 58H39V57H38V58ZM34 58H33V59H34V58ZM32 39H34V37H32V39ZM33 58V38H31V58H33ZM28 59H32V57H28V59ZM29 60V58H27V60H29ZM32 59H28V61H32V59ZM34 59H32V61H34V59ZM38 59H34V61H38V59ZM37 58V60H39V58H37ZM34 59H38V57H34V59ZM33 38V58H35V38H33Z" fill="#122B36" mask="url(#path-4-inside-2)"/>
</g>
<g id="Combined Shape_3">
<mask id="path-6-inside-3" fill="white">
<path fill-rule="evenodd" clip-rule="evenodd" d="M27 51H17V53H21V74H23V53H27V51Z"/>
</mask>
<path d="M17 51V50H16V51H17ZM27 51H28V50H27V51ZM17 53H16V54H17V53ZM21 53H22V52H21V53ZM21 74H20V75H21V74ZM23 74V75H24V74H23ZM23 53V52H22V53H23ZM27 53V54H28V53H27ZM17 52H27V50H17V52ZM18 53V51H16V53H18ZM21 52H17V54H21V52ZM22 74V53H20V74H22ZM23 73H21V75H23V73ZM22 53V74H24V53H22ZM27 52H23V54H27V52ZM26 51V53H28V51H26Z" fill="#122B36" mask="url(#path-6-inside-3)"/>
</g>
<g id="Combined Shape Copy 2">
<mask id="path-8-inside-4" fill="white">
<path fill-rule="evenodd" clip-rule="evenodd" d="M56 38H54V58H50V60H54H56H60V58H56V38Z"/>
</mask>
<path d="M54 38V37H53V38H54ZM56 38H57V37H56V38ZM54 58V59H55V58H54ZM50 58V57H49V58H50ZM50 60H49V61H50V60ZM60 60V61H61V60H60ZM60 58H61V57H60V58ZM56 58H55V59H56V58ZM54 39H56V37H54V39ZM55 58V38H53V58H55ZM50 59H54V57H50V59ZM51 60V58H49V60H51ZM54 59H50V61H54V59ZM56 59H54V61H56V59ZM60 59H56V61H60V59ZM59 58V60H61V58H59ZM56 59H60V57H56V59ZM55 38V58H57V38H55Z" fill="#122B36" mask="url(#path-8-inside-4)"/>
</g>
<g id="Combined Shape Copy">
<mask id="path-10-inside-5" fill="white">
<path fill-rule="evenodd" clip-rule="evenodd" d="M49 51H39V53H43V74H45V53H49V51Z"/>
</mask>
<path d="M39 51V50H38V51H39ZM49 51H50V50H49V51ZM39 53H38V54H39V53ZM43 53H44V52H43V53ZM43 74H42V75H43V74ZM45 74V75H46V74H45ZM45 53V52H44V53H45ZM49 53V54H50V53H49ZM39 52H49V50H39V52ZM40 53V51H38V53H40ZM43 52H39V54H43V52ZM44 74V53H42V74H44ZM45 73H43V75H45V73ZM44 53V74H46V53H44ZM49 52H45V54H49V52ZM48 51V53H50V51H48Z" fill="#122B36" mask="url(#path-10-inside-5)"/>
</g>
<path id="Rectangle 6" d="M13 38H66V75H13V38Z" stroke="#122B36" stroke-width="2"/>
<path id="Rectangle 4" d="M6 24H94V73.2058L78.088 89H6V24Z" stroke="#122B36" stroke-width="2"/>
<path id="Line" d="M78 88V73H93" stroke="#122B36" stroke-width="2" stroke-linecap="square"/>
<g id="Group 3">
<path id="Rectangle 7" d="M83.8656 13.4839C84.9743 12.2526 86.8712 12.1532 88.1025 13.2618L90.3319 15.2692C91.5632 16.3779 91.6626 18.2748 90.5539 19.506L69.7237 42.6404L62.2495 44.2162L63.0354 36.6182L83.8656 13.4839Z" fill="white" stroke="#122B36" stroke-width="2"/>
<path id="Rectangle 8" d="M81.293 15.5938L88.1405 21.7594L87.8001 22.1375L80.9525 15.9719L81.293 15.5938Z" stroke="#122B36"/>
<path id="Rectangle 8 Copy" d="M63.1208 35.7761L69.9683 41.9416L69.6279 42.3197L62.7804 36.1542L63.1208 35.7761Z" stroke="#122B36"/>
</g>
</g>
</svg>
