<svg width="60" height="60" viewBox="0 0 60 60" fill="none" xmlns="http://www.w3.org/2000/svg">
<path d="M43.7687 44.2125L50.6437 37.3375M43.7687 44.2125L51.5468 55.8796C51.9984 56.5569 52.8154 56.893 53.6128 56.7294L55.3429 56.3745C56.5538 56.1262 57.2517 54.8498 56.8073 53.6963L51.1938 39.125L50.6437 37.3375M43.7687 44.2125L40.9085 41.3007M50.6437 37.3375L50.0938 35.55L34.6938 19.6L33.7313 16.9875L31.6688 15.2L29.7709 16.9875M40.9085 41.3007L28.5063 28.675H25.8938L23.2812 30.7375L21.5625 28.5375M40.9085 41.3007V41.3007C37.4444 44.9931 31.6751 45.2697 27.8736 41.9258L20.7797 35.6858C20.2068 35.1819 19.9705 34.3959 20.1706 33.6596L21.5625 28.5375M21.5625 28.5375L19.8438 26.3375L23.8055 22.6061M23.8055 22.6061L15.9938 15.2M23.8055 22.6061L29.7709 16.9875M15.9938 15.2L5.68125 8.4625L8.01875 2L20.6688 8.4625M15.9938 15.2L20.6688 8.4625M20.6688 8.4625L29.7709 16.9875M5.95625 16.025L9.06041 21.8328C9.75271 23.1281 9.53652 24.7262 8.53095 25.7967V25.7967C7.15495 27.2615 4.80836 27.2313 3.48173 25.7217V25.7217C2.56699 24.6808 2.37404 23.1894 2.99376 21.95L5.95625 16.025Z" stroke="white" stroke-width="2"/>
</svg>
