<svg width="30" height="30" viewBox="0 0 30 30" fill="none" xmlns="http://www.w3.org/2000/svg">
<path fill-rule="evenodd" clip-rule="evenodd" d="M19.6355 11.2891V11.2861C19.8865 11.2861 20.138 11.2911 20.3895 11.2851C20.7125 11.2771 20.9755 11.0001 20.9755 10.6766C20.9755 10.1951 20.9755 9.71306 20.9755 9.23156C20.9755 8.88606 20.702 8.61156 20.3575 8.61106C19.877 8.61106 19.3965 8.61056 18.916 8.61106C18.572 8.61156 18.298 8.88706 18.298 9.23256C18.2975 9.71006 18.296 10.1876 18.2995 10.6651C18.3 10.7366 18.3135 10.8106 18.336 10.8781C18.4225 11.1321 18.6555 11.2881 18.9405 11.2896C19.172 11.2896 19.404 11.2891 19.6355 11.2891ZM15 11.9084C13.308 11.9074 11.9325 13.2689 11.909 14.9529C11.8845 16.6829 13.269 18.0534 14.929 18.0889C16.656 18.1259 18.053 16.7459 18.0895 15.0674C18.127 13.3374 16.731 11.9074 15 11.9084ZM9.02299 13.5581V13.5991C9.02299 15.8566 9.02249 18.1141 9.02299 20.3716C9.02299 20.6961 9.30399 20.9756 9.62899 20.9756C13.209 20.9761 16.7885 20.9761 20.3685 20.9756C20.6965 20.9756 20.976 20.6971 20.976 20.3696C20.9765 18.1151 20.976 15.8596 20.976 13.6056V13.5586H19.52C19.7255 14.2156 19.7885 14.8841 19.708 15.5656C19.6275 16.2471 19.4075 16.8811 19.05 17.4671C18.6925 18.0531 18.228 18.5396 17.6605 18.9261C16.1885 19.9291 14.25 20.0171 12.6875 19.1401C11.898 18.6976 11.278 18.0801 10.845 17.2836C10.2005 16.0971 10.0975 14.8511 10.4755 13.5581C9.99149 13.5581 9.51049 13.5581 9.02299 13.5581ZM21.1025 22.6276C21.182 22.6146 21.2615 22.6031 21.34 22.5861C21.963 22.4536 22.472 21.9341 22.594 21.3076C22.6065 21.2391 22.6165 21.1711 22.6275 21.1031V8.89706C22.617 8.83056 22.6075 8.76306 22.595 8.69656C22.461 8.01306 21.897 7.48256 21.205 7.38756C21.176 7.38406 21.1485 7.37756 21.12 7.37256H8.88049C8.80699 7.38606 8.73249 7.39606 8.65999 7.41256C7.98399 7.56656 7.48399 8.11056 7.38749 8.79556C7.38349 8.82406 7.37749 8.85256 7.37299 8.88106V21.1201C7.38699 21.1971 7.39799 21.2756 7.41549 21.3526C7.56499 22.0136 8.12899 22.5261 8.80049 22.6126C8.83249 22.6166 8.86549 22.6231 8.89799 22.6276H21.1025ZM15 30C6.716 30 0 23.284 0 15C0 6.7155 6.716 0 15 0C23.284 0 30 6.7155 30 15C30 23.284 23.284 30 15 30Z" fill="currentColor"/>
</svg>
