<svg width="100" height="100" viewBox="0 0 100 100" fill="none" xmlns="http://www.w3.org/2000/svg">
  <path fill-rule="evenodd" clip-rule="evenodd" d="M0 0H100V100H0V0Z" fill="white"/>
  <mask id="path-2-inside-1">
    <path fill="white"
          d="M20.7126 18.8966L15 24.6093L23.1609 34.8744H26.3613L44.5773 53.0905L41.1149 56.5529L48.4598 59.2931L49.2178 64.6558L68.9929 83.8542C71.3456 86.1384 75.0963 86.1107 77.4149 83.792L80.4694 80.7374C82.8373 78.3695 82.8087 74.5217 80.4057 72.1893L60.9631 53.3185L55.8046 51.9482L52.6562 45.0115L49.1938 48.4739L30.9778 30.2579V27.4656L20.7126 18.8966Z"/>
  </mask>
  <path
    d="M15 24.6093L13.5858 23.195L12.3239 24.4569L13.4345 25.8539L15 24.6093ZM20.7126 18.8966L21.9943 17.3612L20.591 16.1898L19.2984 17.4824L20.7126 18.8966ZM23.1609 34.8744L21.5953 36.119L22.1959 36.8744H23.1609V34.8744ZM26.3613 34.8744L27.7755 33.4602L27.1897 32.8744H26.3613V34.8744ZM44.5773 53.0905L45.9915 54.5047L47.4058 53.0905L45.9915 51.6762L44.5773 53.0905ZM41.1149 56.5529L39.7007 55.1386L37.5004 57.339L40.4158 58.4267L41.1149 56.5529ZM48.4598 59.2931L50.4401 59.0132L50.2736 57.8351L49.1589 57.4193L48.4598 59.2931ZM49.2178 64.6558L47.2375 64.9357L47.3334 65.6137L47.8247 66.0907L49.2178 64.6558ZM68.9929 83.8542L70.386 82.4193L70.386 82.4193L68.9929 83.8542ZM77.4149 83.792L76.0007 82.3778L76.0007 82.3778L77.4149 83.792ZM80.4694 80.7374L79.0552 79.3232L79.0552 79.3232L80.4694 80.7374ZM80.4057 72.1893L81.7987 70.7542L81.7987 70.7542L80.4057 72.1893ZM60.9631 53.3185L62.3561 51.8833L61.9813 51.5196L61.4766 51.3855L60.9631 53.3185ZM55.8046 51.9482L53.9834 52.7748L54.3751 53.6379L55.2911 53.8812L55.8046 51.9482ZM52.6562 45.0115L54.4774 44.1849L53.2839 41.5553L51.242 43.5973L52.6562 45.0115ZM49.1938 48.4739L47.7796 49.8881L49.1938 51.3023L50.608 49.8881L49.1938 48.4739ZM30.9778 30.2579H28.9778V31.0864L29.5636 31.6722L30.9778 30.2579ZM30.9778 27.4656H32.9778V26.5299L32.2594 25.9302L30.9778 27.4656ZM16.4142 26.0235L22.1269 20.3108L19.2984 17.4824L13.5858 23.195L16.4142 26.0235ZM24.7264 33.6298L16.5655 23.3646L13.4345 25.8539L21.5953 36.119L24.7264 33.6298ZM26.3613 32.8744H23.1609V36.8744H26.3613V32.8744ZM45.9915 51.6762L27.7755 33.4602L24.9471 36.2886L43.1631 54.5047L45.9915 51.6762ZM42.5291 57.9671L45.9915 54.5047L43.1631 51.6762L39.7007 55.1386L42.5291 57.9671ZM49.1589 57.4193L41.814 54.679L40.4158 58.4267L47.7607 61.1669L49.1589 57.4193ZM51.1981 64.3758L50.4401 59.0132L46.4795 59.573L47.2375 64.9357L51.1981 64.3758ZM70.386 82.4193L50.611 63.2208L47.8247 66.0907L67.5997 85.2892L70.386 82.4193ZM76.0007 82.3778C74.4549 83.9236 71.9545 83.9421 70.386 82.4193L67.5997 85.2892C70.7367 88.3348 75.7376 88.2978 78.8291 85.2062L76.0007 82.3778ZM79.0552 79.3232L76.0007 82.3778L78.8291 85.2062L81.8837 82.1516L79.0552 79.3232ZM79.0127 73.6245C80.6147 75.1794 80.6338 77.7446 79.0552 79.3232L81.8836 82.1516C85.0409 78.9944 85.0026 73.864 81.7987 70.7542L79.0127 73.6245ZM59.5702 54.7536L79.0127 73.6245L81.7987 70.7542L62.3561 51.8833L59.5702 54.7536ZM55.2911 53.8812L60.4497 55.2515L61.4766 51.3855L56.318 50.0153L55.2911 53.8812ZM50.835 45.8381L53.9834 52.7748L57.6258 51.1217L54.4774 44.1849L50.835 45.8381ZM50.608 49.8881L54.0704 46.4257L51.242 43.5973L47.7796 47.0597L50.608 49.8881ZM29.5636 31.6722L47.7796 49.8881L50.608 47.0597L32.392 28.8437L29.5636 31.6722ZM28.9778 27.4656V30.2579H32.9778V27.4656H28.9778ZM19.431 20.432L29.6961 29.0009L32.2594 25.9302L21.9943 17.3612L19.431 20.432Z"
    fill="#122B36" mask="url(#path-2-inside-1)"/>
  <path d="M71.3103 75.207L56.2126 60.1093" stroke="#122B36" stroke-width="2" stroke-linecap="square"/>
  <path
    d="M62.7414 27.8495L62.0343 27.1424L61.7414 27.4353V27.8495H62.7414ZM71.0253 19.5657L71.7324 20.2728L72.8823 19.1228L71.3372 18.6155L71.0253 19.5657ZM62.7414 36.5055H61.7414V37.5055H62.7414V36.5055ZM71.3974 36.5055V37.5055H71.8116L72.1045 37.2126L71.3974 36.5055ZM79.6491 28.2537L80.6015 27.949L80.1017 26.387L78.942 27.5466L79.6491 28.2537ZM61.6347 44.7922L62.0202 43.8695L61.4018 43.6112L60.9278 44.0849L61.6347 44.7922ZM33.2742 73.1368L32.5673 72.4295L32.1885 72.8081L32.2936 73.3331L33.2742 73.1368ZM26.0898 65.9191L25.8891 66.8987L26.4162 67.0067L26.7968 66.6264L26.0898 65.9191ZM54.4164 37.6082L55.1234 38.3155L55.6001 37.839L55.3373 37.2183L54.4164 37.6082ZM63.4485 28.5566L71.7324 20.2728L70.3182 18.8586L62.0343 27.1424L63.4485 28.5566ZM63.7414 36.5055V27.8495H61.7414V36.5055H63.7414ZM71.3974 35.5055H62.7414V37.5055H71.3974V35.5055ZM78.942 27.5466L70.6903 35.7984L72.1045 37.2126L80.3562 28.9609L78.942 27.5466ZM81.2874 32.3622C81.2874 30.8247 81.0472 29.3415 80.6015 27.949L78.6967 28.5585C79.08 29.7564 79.2874 31.0341 79.2874 32.3622H81.2874ZM66.8218 46.8276C74.8109 46.8276 81.2874 40.3512 81.2874 32.3622H79.2874C79.2874 39.2467 73.7064 44.8276 66.8218 44.8276V46.8276ZM61.2492 45.7149C62.9656 46.432 64.8488 46.8276 66.8218 46.8276V44.8276C65.1181 44.8276 63.4968 44.4864 62.0202 43.8695L61.2492 45.7149ZM33.9811 73.8441L62.3416 45.4995L60.9278 44.0849L32.5673 72.4295L33.9811 73.8441ZM34.4537 74.9574C34.4537 74.268 34.3854 73.5934 34.2547 72.9406L32.2936 73.3331C32.3985 73.8573 32.4537 74.4004 32.4537 74.9574H34.4537ZM24.2272 85.184C29.8752 85.184 34.4537 80.6054 34.4537 74.9574H32.4537C32.4537 79.5008 28.7706 83.184 24.2272 83.184V85.184ZM14.0007 74.9574C14.0007 80.6054 18.5793 85.184 24.2272 85.184V83.184C19.6839 83.184 16.0007 79.5008 16.0007 74.9574H14.0007ZM24.2272 64.731C18.5793 64.731 14.0007 69.3095 14.0007 74.9574H16.0007C16.0007 70.4141 19.6839 66.731 24.2272 66.731V64.731ZM26.2906 64.9394C25.6234 64.8027 24.9332 64.731 24.2272 64.731V66.731C24.7974 66.731 25.3531 66.7889 25.8891 66.8987L26.2906 64.9394ZM53.7095 36.9009L25.3829 65.2118L26.7968 66.6264L55.1234 38.3155L53.7095 36.9009ZM52.3563 32.3622C52.3563 34.3595 52.7617 36.2647 53.4956 37.9981L55.3373 37.2183C54.706 35.7272 54.3563 34.0868 54.3563 32.3622H52.3563ZM66.8218 17.8966C58.8327 17.8966 52.3563 24.373 52.3563 32.3622H54.3563C54.3563 25.4776 59.9373 19.8966 66.8218 19.8966V17.8966ZM71.3372 18.6155C69.9152 18.1487 68.3969 17.8966 66.8218 17.8966V19.8966C68.1824 19.8966 69.4902 20.1142 70.7134 20.5158L71.3372 18.6155ZM27.8736 74.7989C27.8736 76.7255 26.3117 78.2874 24.3851 78.2874V80.2874C27.4163 80.2874 29.8736 77.8301 29.8736 74.7989H27.8736ZM24.3851 71.3103C26.3117 71.3103 27.8736 72.8722 27.8736 74.7989H29.8736C29.8736 71.7676 27.4163 69.3103 24.3851 69.3103V71.3103ZM20.8966 74.7989C20.8966 72.8722 22.4584 71.3103 24.3851 71.3103V69.3103C21.3539 69.3103 18.8966 71.7676 18.8966 74.7989H20.8966ZM24.3851 78.2874C22.4584 78.2874 20.8966 76.7255 20.8966 74.7989H18.8966C18.8966 77.8301 21.3539 80.2874 24.3851 80.2874V78.2874Z"
    fill="#122B36"/>
</svg>
