<svg width="103" height="103" viewBox="0 0 103 103" fill="none" xmlns="http://www.w3.org/2000/svg">
<path fill-rule="evenodd" clip-rule="evenodd" d="M0 0H100V100H0V0Z" fill="white"/>
<path fill-rule="evenodd" clip-rule="evenodd" d="M50 13H52V50H50V13ZM45 18H43V53H45V18ZM24 30H22V80H24V30ZM15 50H17V80H15V50ZM11 85H42V87H11V85ZM36 33H38V61H36V33ZM31 23H29V80H31V23Z" fill="#122B36"/>
<mask id="mask0" mask-type="alpha" maskUnits="userSpaceOnUse" x="40" y="55" width="34" height="34">
<path fill-rule="evenodd" clip-rule="evenodd" d="M56.8583 87.4495L72.8498 88.0079L73.9564 56.3192L57.9649 55.7608L41.9733 55.2023L40.8667 86.891L56.8583 87.4495Z" fill="white"/>
</mask>
<g mask="url(#mask0)">
<path fill-rule="evenodd" clip-rule="evenodd" d="M51.6895 84.5363L48.2954 82.4166L50.4755 78.9285L49.5935 77.8231C48.8303 76.8698 48.2587 75.7882 47.8857 74.6065L47.4605 73.2588L43.353 73.1154L43.4926 69.1178L47.6001 69.2613L48.1183 67.9466C48.5727 66.7957 49.2184 65.7556 50.0463 64.856L51.0032 63.8157L49.0718 60.1841L52.6055 58.3043L54.5371 61.9309L55.9332 61.7235C56.5779 61.629 57.1776 61.5909 57.7633 61.6113C58.3479 61.6317 58.9445 61.7126 59.58 61.8509L60.9582 62.1551L63.1351 58.672L66.5291 60.7937L64.3543 64.277L65.2322 65.3823C65.9961 66.3445 66.5687 67.4262 66.9428 68.6039L67.369 69.9516L71.4755 70.095L71.3359 74.0926L67.2294 73.9492L66.7103 75.2639C66.2549 76.4127 65.6081 77.4557 64.7791 78.3574L63.8261 79.4007L65.7528 83.0262L62.2211 84.9041L60.2924 81.2786L58.8983 81.486C58.2486 81.5824 57.6499 81.6195 57.0653 81.5991C56.4806 81.5787 55.883 81.4998 55.2436 81.3584L53.8643 81.0541L51.6895 84.5363ZM56.9945 83.5979C57.744 83.624 58.4753 83.5715 59.1884 83.4653L61.3922 87.6068L68.4566 83.851L66.2528 79.7096C67.2348 78.6372 68.0233 77.378 68.5698 75.9972L73.2639 76.1611L73.5431 68.166L68.849 68.0021C68.4021 66.5866 67.7034 65.2754 66.7966 64.1371L69.284 60.1585L62.4988 55.9191L60.0094 59.8976C59.3054 59.742 58.5806 59.6386 57.8311 59.6124C57.0835 59.5863 56.3512 59.6388 55.6351 59.7449L53.4303 55.6024L46.366 59.3582L48.5697 63.5026C47.5846 64.5749 46.8003 65.8323 46.2538 67.213L41.5596 67.0491L41.2804 75.0442L45.9746 75.2082C46.4204 76.6236 47.1151 77.9346 48.026 79.0711L45.5386 83.0517L52.3237 87.2911L54.8101 83.3124C55.5181 83.4682 56.2439 83.5716 56.9925 83.5978L56.9945 83.5979Z" fill="#122B36"/>
</g>
<path fill-rule="evenodd" clip-rule="evenodd" d="M63.4092 71.8146C63.5248 68.5036 60.9322 65.7244 57.6222 65.6088C54.3113 65.4932 51.5321 68.0858 51.4165 71.3958C51.3009 74.7068 53.8935 77.4859 57.2035 77.6015C60.5124 77.7171 63.2936 75.1256 63.4092 71.8146ZM61.4104 71.7448C61.3335 73.9484 59.4789 75.6797 57.2733 75.6027C55.0696 75.5258 53.3383 73.6692 53.4153 71.4656C53.4923 69.2599 55.3488 67.5306 57.5525 67.6076C59.7581 67.6846 61.4874 69.5391 61.4104 71.7448Z" fill="#122B36"/>
<mask id="mask1" mask-type="alpha" maskUnits="userSpaceOnUse" x="57" y="27" width="37" height="37">
<path fill-rule="evenodd" clip-rule="evenodd" d="M79.9622 58.2883L93.0135 53.538L83.6004 27.6757L70.5491 32.4259L57.4978 37.1762L66.9109 63.0386L79.9622 58.2883Z" fill="white"/>
</mask>
<g mask="url(#mask1)">
<path fill-rule="evenodd" clip-rule="evenodd" d="M74.8552 57.6245L71.4345 57.0221L72.0548 53.5062L70.9856 52.9033C70.0614 52.3843 69.2497 51.6997 68.5653 50.87L67.7849 49.9236L64.4326 51.1438L63.2451 47.8812L66.5974 46.6611L66.587 45.4345C66.5785 44.3606 66.7599 43.3136 67.1337 42.3204L67.5655 41.1721L64.8303 38.8774L67.063 36.2155L69.7967 38.5061L70.8528 37.8853C71.3409 37.5995 71.8112 37.3739 72.2891 37.1999C72.7663 37.0262 73.2727 36.8974 73.8291 36.802L75.0372 36.5987L75.6566 33.0877L79.0779 33.6917L78.4602 37.2021L79.5262 37.8062C80.4538 38.3322 81.2663 39.0165 81.9504 39.8427L82.7316 40.7887L86.0831 39.5689L87.2705 42.8314L83.9191 44.0513L83.9287 45.2781C83.9358 46.3507 83.7544 47.4005 83.3804 48.3956L82.9527 49.5452L85.6821 51.8364L83.4504 54.4961L80.7194 52.2054L79.665 52.8257C79.1734 53.1145 78.7037 53.3391 78.2265 53.5127C77.7494 53.6864 77.2428 53.8172 76.6822 53.9113L75.4732 54.1149L74.8552 57.6245ZM78.8194 55.1443C79.4312 54.9216 80.0026 54.6416 80.542 54.3243L83.6622 56.9407L88.1263 51.6211L85.0061 49.0047C85.4477 47.8224 85.6728 46.5526 85.6637 45.2637L89.4947 43.8693L87.1198 37.3441L83.2887 38.7385C82.4689 37.7447 81.4802 36.9167 80.3803 36.2954L81.0884 32.2847L74.2494 31.0791L73.5396 35.0904C72.9224 35.1941 72.3055 35.3466 71.6938 35.5692C71.0837 35.7913 70.5114 36.0716 69.9696 36.3898L66.8483 33.7729L62.3842 39.0925L65.5052 41.7113C65.0612 42.8946 64.8388 44.1615 64.8479 45.4504L61.0168 46.8448L63.3918 53.37L67.2229 51.9756C68.0419 52.9697 69.0273 53.7989 70.1299 54.4174L69.4223 58.4297L76.2614 59.6353L76.9687 55.6249C77.5891 55.52 78.2069 55.3672 78.8178 55.1449L78.8194 55.1443Z" fill="#122B36"/>
</g>
<path fill-rule="evenodd" clip-rule="evenodd" d="M80.1505 43.5755C79.167 40.8733 76.1769 39.4796 73.4755 40.4629C70.7732 41.4464 69.3796 44.4365 70.3628 47.1379C71.3464 49.8401 74.3365 51.2338 77.0379 50.2505C79.7385 49.2676 81.134 46.2777 80.1505 43.5755ZM78.5192 44.1692C79.1738 45.9677 78.2443 47.964 76.4442 48.6192C74.6457 49.2738 72.6487 48.3426 71.9941 46.5441C71.3389 44.744 72.2707 42.7487 74.0692 42.0941C75.8693 41.4389 77.8641 42.3691 78.5192 44.1692Z" fill="#122B36"/>
</svg>
