<svg width="52" height="52" viewBox="0 0 52 52" fill="none" xmlns="http://www.w3.org/2000/svg">
<g>
<path fill-rule="evenodd" clip-rule="evenodd" d="M26 -3.05176e-05C11.6419 -3.05176e-05 0 11.641 0 26C0 40.3589 11.6419 52 26 52C40.3581 52 52 40.3589 52 26C52 11.641 40.3581 -3.05176e-05 26 -3.05176e-05ZM25.9999 1.73331C39.3808 1.73331 50.2666 12.6192 50.2666 26C50.2666 39.3808 39.3808 50.2666 25.9999 50.2666C12.6191 50.2666 1.73328 39.3808 1.73328 26C1.73328 12.6192 12.6191 1.73331 25.9999 1.73331Z" fill="currentColor"/>
<path fill-rule="evenodd" clip-rule="evenodd" d="M22.6165 35.7258C21.728 36.3182 21 35.9183 21 34.8377V16.1601C21 15.0795 21.727 14.6816 22.6146 15.2759L36.3344 24.4497C37.2228 25.0431 37.2219 26.0137 36.3315 26.6061L22.6165 35.7258ZM37.2078 22.7149L23.3492 13.72C20.9564 12.168 19 13.2093 19 16.0327V34.9627C19 37.7861 20.959 38.8308 23.3561 37.2848L37.2017 28.349C39.5971 26.8012 39.5997 24.2669 37.2078 22.7149Z" fill="currentColor"/>
</g>
</svg>
