<svg width="20" height="20" viewBox="0 0 20 20" fill="none" xmlns="http://www.w3.org/2000/svg">
<mask id="path-1-inside-1" fill="white">
<path fill-rule="evenodd" clip-rule="evenodd" d="M11 0H9V9H0V11H9V20H11V11H20V9H11V0Z"/>
</mask>
<path d="M9 0V-1H8V0H9ZM11 0H12V-1H11V0ZM9 9V10H10V9H9ZM0 9V8H-1V9H0ZM0 11H-1V12H0V11ZM9 11H10V10H9V11ZM9 20H8V21H9V20ZM11 20V21H12V20H11ZM11 11V10H10V11H11ZM20 11V12H21V11H20ZM20 9H21V8H20V9ZM11 9H10V10H11V9ZM9 1H11V-1H9V1ZM10 9V0H8V9H10ZM0 10H9V8H0V10ZM1 11V9H-1V11H1ZM9 10H0V12H9V10ZM10 20V11H8V20H10ZM11 19H9V21H11V19ZM10 11V20H12V11H10ZM20 10H11V12H20V10ZM19 9V11H21V9H19ZM11 10H20V8H11V10ZM10 0V9H12V0H10Z" fill="currentColor" mask="url(#path-1-inside-1)"/>
</svg>
