<svg width="100" height="100" viewBox="0 0 100 100" fill="none" xmlns="http://www.w3.org/2000/svg">
  <path fill-rule="evenodd" clip-rule="evenodd" d="M0 0H100V100H0V0Z" fill="white"/>
  <defs>
    <mask id="path-2-inside-1" fill="white">
      <path fill-rule="evenodd" clip-rule="evenodd"
            d="M29.7248 32L17 39.3467L38.6545 76.8533H29.32C23.7972 76.8533 19.32 81.3304 19.32 86.8533V89.9999H75V86.8533C75 81.3304 70.5229 76.8533 65 76.8533H55.6208L29.7248 32Z"/>
    </mask>
  </defs>
  <path
    d="M17 39.3467L16 37.6146L14.2679 38.6146L15.2679 40.3467L17 39.3467ZM29.7248 32L31.4568 31L30.4568 29.2679L28.7248 30.268L29.7248 32ZM38.6545 76.8533V78.8533H42.1186L40.3865 75.8533L38.6545 76.8533ZM19.32 89.9999H17.32V91.9999H19.32V89.9999ZM75 89.9999V91.9999H77V89.9999H75ZM55.6208 76.8533L53.8888 77.8533L54.4661 78.8533H55.6208V76.8533ZM18 41.0787L30.7248 33.732L28.7248 30.268L16 37.6146L18 41.0787ZM40.3865 75.8533L18.7321 38.3467L15.2679 40.3467L36.9224 77.8533L40.3865 75.8533ZM29.32 78.8533H38.6545V74.8533H29.32V78.8533ZM21.32 86.8533C21.32 82.435 24.9017 78.8533 29.32 78.8533V74.8533C22.6926 74.8533 17.32 80.2259 17.32 86.8533H21.32ZM21.32 89.9999V86.8533H17.32V89.9999H21.32ZM75 87.9999H19.32V91.9999H75V87.9999ZM73 86.8533V89.9999H77V86.8533H73ZM65 78.8533C69.4183 78.8533 73 82.435 73 86.8533H77C77 80.2259 71.6274 74.8533 65 74.8533V78.8533ZM55.6208 78.8533H65V74.8533H55.6208V78.8533ZM27.9927 33L53.8888 77.8533L57.3529 75.8533L31.4568 31L27.9927 33Z"
    fill="#122B36" mask="url(#path-2-inside-1)"/>
  <path fill-rule="evenodd" clip-rule="evenodd"
        d="M44 79C44.5523 79 45 78.5523 45 78C45 77.4477 44.5523 77 44 77C43.4477 77 43 77.4477 43 78C43 78.5523 43.4477 79 44 79Z"
        fill="#122B36"/>
  <path fill-rule="evenodd" clip-rule="evenodd"
        d="M48 79C48.5523 79 49 78.5523 49 78C49 77.4477 48.5523 77 48 77C47.4477 77 47 77.4477 47 78C47 78.5523 47.4477 79 48 79Z"
        fill="#122B36"/>
  <path fill-rule="evenodd" clip-rule="evenodd"
        d="M52 79C52.5523 79 53 78.5523 53 78C53 77.4477 52.5523 77 52 77C51.4477 77 51 77.4477 51 78C51 78.5523 51.4477 79 52 79Z"
        fill="#122B36"/>
  <path d="M63 26.8989L70.6364 21.3932L84 29.2584L81.7091 32.7977L72.1636 27.6854L64.5273 33.191" stroke="#122B36"
        stroke-width="2" stroke-linecap="square"/>
  <path d="M63 43.4158L70.6364 48.9214L84 41.0562L81.7091 37.5169L72.1636 42.6293L64.5273 37.1236" stroke="#122B36"
        stroke-width="2" stroke-linecap="square"/>
  <path d="M37 29H52V41H37V29Z" stroke="#122B36" stroke-width="2"/>
  <path
    d="M52 30C52 28.3431 53.3431 27 55 27H61C62.6569 27 64 28.3431 64 30V40C64 41.6569 62.6569 43 61 43H55C53.3431 43 52 41.6569 52 40V30Z"
    stroke="#122B36" stroke-width="2"/>
  <path fill-rule="evenodd" clip-rule="evenodd"
        d="M26.5 46C33.4036 46 39 40.4036 39 33.5C39 26.5964 33.4036 21 26.5 21C19.5964 21 14 26.5964 14 33.5C14 40.4036 19.5964 46 26.5 46Z"
        fill="white" stroke="#122B36" stroke-width="2"/>
  <path fill-rule="evenodd" clip-rule="evenodd"
        d="M26.7342 39.3033C27.2837 39.3033 27.7292 38.8556 27.7292 38.3033C27.7292 37.7511 27.2837 37.3033 26.7342 37.3033C26.1846 37.3033 25.7391 37.7511 25.7391 38.3033C25.7391 38.8556 26.1846 39.3033 26.7342 39.3033Z"
        fill="#122B36"/>
  <path fill-rule="evenodd" clip-rule="evenodd"
        d="M31.4298 34.5843C31.9794 34.5843 32.4248 34.1366 32.4248 33.5843C32.4248 33.032 31.9794 32.5843 31.4298 32.5843C30.8803 32.5843 30.4348 33.032 30.4348 33.5843C30.4348 34.1366 30.8803 34.5843 31.4298 34.5843Z"
        fill="#122B36"/>
  <path fill-rule="evenodd" clip-rule="evenodd"
        d="M22.0385 34.5843C22.588 34.5843 23.0335 34.1366 23.0335 33.5843C23.0335 33.032 22.588 32.5843 22.0385 32.5843C21.489 32.5843 21.0435 33.032 21.0435 33.5843C21.0435 34.1366 21.489 34.5843 22.0385 34.5843Z"
        fill="#122B36"/>
  <path fill-rule="evenodd" clip-rule="evenodd"
        d="M26.7342 29.8652C27.2837 29.8652 27.7292 29.4175 27.7292 28.8652C27.7292 28.3129 27.2837 27.8652 26.7342 27.8652C26.1846 27.8652 25.7391 28.3129 25.7391 28.8652C25.7391 29.4175 26.1846 29.8652 26.7342 29.8652Z"
        fill="#122B36"/>
  <path fill-rule="evenodd" clip-rule="evenodd"
        d="M22.5534 37.7859C22.9487 38.1676 23.5802 38.155 23.9638 37.7578C24.3475 37.3605 24.338 36.729 23.9427 36.3472C23.5474 35.9655 22.916 35.9781 22.5323 36.3753C22.1487 36.7726 22.1581 37.4041 22.5534 37.7859Z"
        fill="#122B36"/>
  <path fill-rule="evenodd" clip-rule="evenodd"
        d="M29.2094 37.6531C29.6047 38.0349 30.2361 38.0223 30.6198 37.625C31.0034 37.2277 30.994 36.5962 30.5987 36.2145C30.2034 35.8327 29.5719 35.8453 29.1882 36.2426C28.8046 36.6399 28.814 37.2714 29.2094 37.6531Z"
        fill="#122B36"/>
  <path fill-rule="evenodd" clip-rule="evenodd"
        d="M22.4538 31.1294C22.8491 31.5111 23.4806 31.4985 23.8642 31.1013C24.2479 30.704 24.2384 30.0725 23.8431 29.6907C23.4478 29.309 22.8164 29.3216 22.4327 29.7189C22.0491 30.1161 22.0585 30.7477 22.4538 31.1294Z"
        fill="#122B36"/>
  <path fill-rule="evenodd" clip-rule="evenodd"
        d="M29.1097 30.9966C29.505 31.3784 30.1365 31.3658 30.5202 30.9685C30.9038 30.5712 30.8944 29.9397 30.4991 29.558C30.1038 29.1762 29.4723 29.1888 29.0886 29.5861C28.705 29.9834 28.7144 30.6149 29.1097 30.9966Z"
        fill="#122B36"/>
</svg>
