<svg width="62" height="62" viewBox="0 0 62 62" fill="none" xmlns="http://www.w3.org/2000/svg">
<path fill-rule="evenodd" clip-rule="evenodd" d="M1 1H61V61H1V1Z" fill="white"/>
<path fill-rule="evenodd" clip-rule="evenodd" d="M31 61C47.5685 61 61 47.5685 61 31C61 14.4315 47.5685 1 31 1C14.4315 1 1 14.4315 1 31C1 47.5685 14.4315 61 31 61Z" stroke="#122B36" stroke-width="2"/>
<path fill-rule="evenodd" clip-rule="evenodd" d="M31 52.5493C42.9013 52.5493 52.5493 42.9013 52.5493 31C52.5493 19.0986 42.9013 9.45068 31 9.45068C19.0986 9.45068 9.45068 19.0986 9.45068 31C9.45068 42.9013 19.0986 52.5493 31 52.5493Z" stroke="#122B36" stroke-width="2"/>
<path fill-rule="evenodd" clip-rule="evenodd" d="M31 44.0986C38.2341 44.0986 44.0986 38.2341 44.0986 31C44.0986 23.7658 38.2341 17.9014 31 17.9014C23.7658 17.9014 17.9014 23.7658 17.9014 31C17.9014 38.2341 23.7658 44.0986 31 44.0986Z" stroke="#122B36" stroke-width="2"/>
<path fill-rule="evenodd" clip-rule="evenodd" d="M30.9999 35.6478C33.5669 35.6478 35.6478 33.5669 35.6478 30.9999C35.6478 28.433 33.5669 26.3521 30.9999 26.3521C28.433 26.3521 26.3521 28.433 26.3521 30.9999C26.3521 33.5669 28.433 35.6478 30.9999 35.6478Z" fill="#122B36"/>
</svg>
