<svg width="60" height="60" viewBox="0 0 60 60" fill="none" xmlns="http://www.w3.org/2000/svg">
<path fill-rule="evenodd" clip-rule="evenodd" d="M0 0H60V60H0V0Z" fill="white"/>
<path d="M5 9C5 7.89543 5.89543 7 7 7H41C42.1046 7 43 7.89543 43 9V30C43 31.1046 42.1046 32 41 32H7C5.89543 32 5 31.1046 5 30V9Z" fill="white"/>
<path d="M5 9C5 7.89543 5.89543 7 7 7H41C42.1046 7 43 7.89543 43 9V30C43 31.1046 42.1046 32 41 32H7C5.89543 32 5 31.1046 5 30V9Z" stroke="#122B36" stroke-width="2"/>
<path d="M5 9C5 7.89543 5.89543 7 7 7H41C42.1046 7 43 7.89543 43 9V30C43 31.1046 42.1046 32 41 32H7C5.89543 32 5 31.1046 5 30V9Z" stroke="white" stroke-width="2"/>
<path d="M9 25L17 25V28H9L9 25Z" stroke="#122B36" stroke-width="2"/>
<path d="M9 18L17 18V21H9L9 18Z" stroke="#122B36" stroke-width="2"/>
<path d="M9 11L17 11V14H9L9 11Z" stroke="#122B36" stroke-width="2"/>
<path d="M20.5 10.5H38.5V11.5H20.5V10.5Z" stroke="#122B36"/>
<path d="M20.5 13.5H28.5V14.5H20.5V13.5Z" stroke="#122B36"/>
<path d="M20.5 24.5H38.5V25.5H20.5V24.5Z" stroke="#122B36"/>
<path d="M20.5 17.5H38.5V18.5H20.5V17.5Z" stroke="#122B36"/>
<path d="M20.5 20.5H33.5V21.5H20.5V20.5Z" stroke="#122B36"/>
<path d="M21 30C21 28.8954 21.8954 28 23 28H57C58.1046 28 59 28.8954 59 30V51C59 52.1046 58.1046 53 57 53H23C21.8954 53 21 52.1046 21 51V30Z" fill="white" stroke="#122B36" stroke-width="2"/>
<path d="M25 46L33 46V49H25L25 46Z" stroke="#122B36" stroke-width="2"/>
<path d="M25 39L33 39V42H25L25 39Z" stroke="#122B36" stroke-width="2"/>
<path d="M25 32L33 32V35H25L25 32Z" stroke="#122B36" stroke-width="2"/>
<path d="M36.5 31.5H54.5V32.5H36.5V31.5Z" stroke="#122B36"/>
<path d="M36.5 34.5H44.5V35.5H36.5V34.5Z" stroke="#122B36"/>
<path d="M36.5 45.5H54.5V46.5H36.5V45.5Z" stroke="#122B36"/>
<path d="M36.5 48.5H44.5V49.5H36.5V48.5Z" stroke="#122B36"/>
<path d="M36.5 38.5H54.5V39.5H36.5V38.5Z" stroke="#122B36"/>
<path d="M36.5 41.5H49.5V42.5H36.5V41.5Z" stroke="#122B36"/>
</svg>
