<svg width="60" height="60" viewBox="0 0 60 60" fill="none" xmlns="http://www.w3.org/2000/svg">
<path fill-rule="evenodd" clip-rule="evenodd" d="M0 0H60V60H0V0Z" fill="white"/>
<mask id="path-2-inside-1" fill="white">
<path fill-rule="evenodd" clip-rule="evenodd" d="M6.78866 1.80638C9.32966 0.881516 12.1393 2.19167 13.0641 4.73268L20.6228 25.5H38.7894V26.5C38.7894 29.2614 36.5508 31.5 33.7894 31.5H22.8066L24.9904 37.5H44.353C47.0454 37.5 49.228 39.6826 49.228 42.375C49.228 45.0673 47.0454 47.25 44.353 47.25H24.4999H21.296C19.3489 47.25 17.6685 46.1085 16.8873 44.4582C16.6806 44.1363 16.5074 43.7858 16.3744 43.4101L3.848 8.04186C2.95078 5.50853 4.26325 2.72554 6.78866 1.80638Z"/>
</mask>
<path d="M13.0641 4.73268L11.1847 5.41672L11.1847 5.41672L13.0641 4.73268ZM6.78866 1.80638L7.47269 3.68577L7.47271 3.68576L6.78866 1.80638ZM20.6228 25.5L18.7434 26.184L19.2224 27.5H20.6228V25.5ZM38.7894 25.5H40.7894V23.5H38.7894V25.5ZM22.8066 31.5V29.5H19.9503L20.9272 32.184L22.8066 31.5ZM24.9904 37.5L23.1111 38.184L23.59 39.5H24.9904V37.5ZM16.8873 44.4582L18.695 43.6025L18.6399 43.4861L18.5702 43.3776L16.8873 44.4582ZM16.3744 43.4101L14.4891 44.0778L14.4891 44.0778L16.3744 43.4101ZM3.848 8.04186L1.96274 8.70955L1.96274 8.70956L3.848 8.04186ZM14.9435 4.04865C13.6409 0.469675 9.68358 -1.37566 6.10461 -0.0729994L7.47271 3.68576C8.97575 3.13869 10.6377 3.91366 11.1847 5.41672L14.9435 4.04865ZM22.5022 24.8159L14.9435 4.04864L11.1847 5.41672L18.7434 26.184L22.5022 24.8159ZM20.6228 27.5H38.7894V23.5H20.6228V27.5ZM36.7894 25.5V26.5H40.7894V25.5H36.7894ZM36.7894 26.5C36.7894 28.1568 35.4463 29.5 33.7894 29.5V33.5C37.6554 33.5 40.7894 30.3659 40.7894 26.5H36.7894ZM33.7894 29.5H22.8066V33.5H33.7894V29.5ZM26.8698 36.8159L24.686 30.8159L20.9272 32.184L23.1111 38.184L26.8698 36.8159ZM44.353 35.5H24.9904V39.5H44.353V35.5ZM51.228 42.375C51.228 38.578 48.15 35.5 44.353 35.5V39.5C45.9408 39.5 47.228 40.7871 47.228 42.375H51.228ZM44.353 49.25C48.15 49.25 51.228 46.1719 51.228 42.375H47.228C47.228 43.9628 45.9408 45.25 44.353 45.25V49.25ZM24.4999 49.25H44.353V45.25H24.4999V49.25ZM21.296 49.25H24.4999V45.25H21.296V49.25ZM15.0796 45.3139C16.1791 47.6366 18.5471 49.25 21.296 49.25V45.25C20.1507 45.25 19.1579 44.5804 18.695 43.6025L15.0796 45.3139ZM14.4891 44.0778C14.6739 44.5996 14.9152 45.0885 15.2044 45.5389L18.5702 43.3776C18.4459 43.1841 18.341 42.9721 18.2596 42.7424L14.4891 44.0778ZM1.96274 8.70956L14.4891 44.0778L18.2596 42.7424L5.73325 7.37416L1.96274 8.70956ZM6.10463 -0.0730077C2.54761 1.22162 0.699034 5.14143 1.96274 8.70955L5.73325 7.37416C5.20252 5.87563 5.97889 4.22946 7.47269 3.68577L6.10463 -0.0730077Z" fill="#122B36" mask="url(#path-2-inside-1)"/>
<path d="M22.1624 53.9125L24.2565 46.5H42.238L44.2855 53.9385C44.9865 56.4851 43.0703 59 40.4289 59H26.0117C23.3591 59 21.4412 56.4652 22.1624 53.9125Z" stroke="#122B36" stroke-width="2"/>
<path d="M13.9967 4.19611C14.7548 3.92019 15.5931 4.31107 15.869 5.06918L18.29 11.7207C18.5659 12.4789 18.175 13.3171 17.4169 13.593C16.6588 13.869 15.8206 13.4781 15.5446 12.72L13.1236 6.0684C12.8477 5.31029 13.2386 4.47204 13.9967 4.19611Z" stroke="#122B36" stroke-width="2"/>
<path d="M42.7719 7.45614C42.7719 3.89051 45.6624 1 49.228 1C52.7936 1 55.6841 3.89051 55.6841 7.45614V13.5439C55.6841 17.1095 52.7936 20 49.228 20C45.6624 20 42.7719 17.1095 42.7719 13.5439V7.45614Z" stroke="#122B36" stroke-width="2"/>
<path fill-rule="evenodd" clip-rule="evenodd" d="M44.8045 8.42104C45.2197 8.42104 45.5564 8.1854 45.5564 7.89472C45.5564 7.60405 45.2197 7.36841 44.8045 7.36841C44.3892 7.36841 44.0526 7.60405 44.0526 7.89472C44.0526 8.1854 44.3892 8.42104 44.8045 8.42104Z" fill="#122B36"/>
<path fill-rule="evenodd" clip-rule="evenodd" d="M47.8119 8.42104C48.2272 8.42104 48.5638 8.1854 48.5638 7.89472C48.5638 7.60405 48.2272 7.36841 47.8119 7.36841C47.3967 7.36841 47.0601 7.60405 47.0601 7.89472C47.0601 8.1854 47.3967 8.42104 47.8119 8.42104Z" fill="#122B36"/>
<path fill-rule="evenodd" clip-rule="evenodd" d="M50.8195 8.42104C51.2348 8.42104 51.5714 8.1854 51.5714 7.89472C51.5714 7.60405 51.2348 7.36841 50.8195 7.36841C50.4043 7.36841 50.0676 7.60405 50.0676 7.89472C50.0676 8.1854 50.4043 8.42104 50.8195 8.42104Z" fill="#122B36"/>
<path fill-rule="evenodd" clip-rule="evenodd" d="M53.8271 8.42104C54.2423 8.42104 54.579 8.1854 54.579 7.89472C54.579 7.60405 54.2423 7.36841 53.8271 7.36841C53.4118 7.36841 53.0752 7.60405 53.0752 7.89472C53.0752 8.1854 53.4118 8.42104 53.8271 8.42104Z" fill="#122B36"/>
</svg>
