<svg width="60" height="60" viewBox="0 0 60 60" fill="none" xmlns="http://www.w3.org/2000/svg">
<path opacity="0.01" fill-rule="evenodd" clip-rule="evenodd" d="M0 0H60V60H0V0Z" fill="white"/>
<mask id="path-2-inside-1" fill="white">
<path fill-rule="evenodd" clip-rule="evenodd" d="M6.78866 1.80649C9.32966 0.88165 12.1393 2.19179 13.0641 4.73279L20.6228 25.5H38.7894V26.5C38.7894 29.2614 36.5508 31.5 33.7894 31.5H22.8066L24.9904 37.5H44.353C47.0454 37.5 49.228 39.6826 49.228 42.375C49.228 45.0674 47.0454 47.25 44.353 47.25H24.4999H21.296C19.349 47.25 17.6686 46.1087 16.8874 44.4585C16.6806 44.1365 16.5075 43.786 16.3744 43.4102L3.848 8.04196C2.95078 5.50866 4.26325 2.72567 6.78866 1.80649Z"/>
</mask>
<path d="M13.0641 4.73279L11.1847 5.41683V5.41683L13.0641 4.73279ZM6.78866 1.80649L6.10463 -0.0728935L6.10462 -0.072891L6.78866 1.80649ZM20.6228 25.5L18.7434 26.1841L19.2224 27.5H20.6228V25.5ZM38.7894 25.5H40.7894V23.5H38.7894V25.5ZM22.8066 31.5V29.5H19.9503L20.9272 32.1841L22.8066 31.5ZM24.9904 37.5L23.111 38.1841L23.59 39.5H24.9904V37.5ZM16.8874 44.4585L18.6951 43.6027L18.6399 43.4863L18.5703 43.3778L16.8874 44.4585ZM16.3744 43.4102L18.2596 42.7425H18.2596L16.3744 43.4102ZM3.848 8.04196L1.96274 8.70966L1.96274 8.70966L3.848 8.04196ZM14.9435 4.04875C13.6409 0.469792 9.68357 -1.37552 6.10463 -0.0728935L7.4727 3.68588C8.97575 3.13882 10.6377 3.91379 11.1847 5.41683L14.9435 4.04875ZM22.5022 24.816L14.9435 4.04875L11.1847 5.41683L18.7434 26.1841L22.5022 24.816ZM20.6228 27.5H38.7894V23.5H20.6228V27.5ZM36.7894 25.5V26.5H40.7894V25.5H36.7894ZM36.7894 26.5C36.7894 28.1569 35.4463 29.5 33.7894 29.5V33.5C37.6554 33.5 40.7894 30.366 40.7894 26.5H36.7894ZM33.7894 29.5H22.8066V33.5H33.7894V29.5ZM26.8698 36.816L24.686 30.816L20.9272 32.1841L23.111 38.1841L26.8698 36.816ZM44.353 35.5H24.9904V39.5H44.353V35.5ZM51.228 42.375C51.228 38.5781 48.15 35.5 44.353 35.5V39.5C45.9408 39.5 47.228 40.7872 47.228 42.375H51.228ZM44.353 49.25C48.15 49.25 51.228 46.172 51.228 42.375H47.228C47.228 43.9628 45.9408 45.25 44.353 45.25V49.25ZM24.4999 49.25H44.353V45.25H24.4999V49.25ZM21.296 49.25H24.4999V45.25H21.296V49.25ZM15.0797 45.3143C16.1793 47.6368 18.5472 49.25 21.296 49.25V45.25C20.1508 45.25 19.158 44.5805 18.6951 43.6027L15.0797 45.3143ZM14.4891 44.0779C14.674 44.5998 14.9152 45.0888 15.2045 45.5392L18.5703 43.3778C18.446 43.1843 18.341 42.9722 18.2596 42.7425L14.4891 44.0779ZM1.96274 8.70966L14.4891 44.0779L18.2596 42.7425L5.73325 7.37426L1.96274 8.70966ZM6.10462 -0.072891C2.54762 1.22176 0.699026 5.14154 1.96274 8.70966L5.73325 7.37426C5.20253 5.87577 5.97887 4.22959 7.47271 3.68588L6.10462 -0.072891Z" fill="white" mask="url(#path-2-inside-1)"/>
<path d="M22.1624 53.9125L24.2565 46.5H42.238L44.2855 53.9385C44.9865 56.4851 43.0703 59 40.4289 59H26.0117C23.3591 59 21.4412 56.4652 22.1624 53.9125Z" stroke="white" stroke-width="2"/>
<path d="M13.9967 4.196C14.7548 3.92007 15.5931 4.31095 15.869 5.06906L18.29 11.7206C18.5659 12.4787 18.175 13.317 17.4169 13.5929C16.6588 13.8689 15.8205 13.478 15.5446 12.7199L13.1236 6.06829C12.8477 5.31018 13.2386 4.47193 13.9967 4.196Z" stroke="white" stroke-width="2"/>
<path d="M42.7719 7.45614C42.7719 3.89051 45.6624 1 49.228 1C52.7936 1 55.6841 3.89051 55.6841 7.45614V13.5439C55.6841 17.1095 52.7936 20 49.228 20C45.6624 20 42.7719 17.1095 42.7719 13.5439V7.45614Z" stroke="white" stroke-width="2"/>
<path fill-rule="evenodd" clip-rule="evenodd" d="M44.8045 8.42104C45.2197 8.42104 45.5564 8.1854 45.5564 7.89472C45.5564 7.60405 45.2197 7.36841 44.8045 7.36841C44.3892 7.36841 44.0526 7.60405 44.0526 7.89472C44.0526 8.1854 44.3892 8.42104 44.8045 8.42104Z" fill="white"/>
<path fill-rule="evenodd" clip-rule="evenodd" d="M47.8119 8.42104C48.2272 8.42104 48.5638 8.1854 48.5638 7.89472C48.5638 7.60405 48.2272 7.36841 47.8119 7.36841C47.3967 7.36841 47.0601 7.60405 47.0601 7.89472C47.0601 8.1854 47.3967 8.42104 47.8119 8.42104Z" fill="white"/>
<path fill-rule="evenodd" clip-rule="evenodd" d="M50.8195 8.42104C51.2348 8.42104 51.5714 8.1854 51.5714 7.89472C51.5714 7.60405 51.2348 7.36841 50.8195 7.36841C50.4043 7.36841 50.0676 7.60405 50.0676 7.89472C50.0676 8.1854 50.4043 8.42104 50.8195 8.42104Z" fill="white"/>
<path fill-rule="evenodd" clip-rule="evenodd" d="M53.8271 8.42104C54.2423 8.42104 54.579 8.1854 54.579 7.89472C54.579 7.60405 54.2423 7.36841 53.8271 7.36841C53.4118 7.36841 53.0752 7.60405 53.0752 7.89472C53.0752 8.1854 53.4118 8.42104 53.8271 8.42104Z" fill="white"/>
</svg>
