<svg width="60" height="60" viewBox="0 0 60 60" fill="none" xmlns="http://www.w3.org/2000/svg">
<path fill-rule="evenodd" clip-rule="evenodd" d="M0 0H60V60H0V0Z" fill="white"/>
<path d="M29.7307 5.11548H30.2692V11.8078H29.7307V5.11548Z" stroke="#122B36"/>
<path d="M11.8076 29.7307V30.2692H5.11531V29.7307H11.8076Z" stroke="#122B36"/>
<path d="M54.8846 29.7307V30.2692H48.1923V29.7307H54.8846Z" stroke="#122B36"/>
<path d="M59 30C59 46.0163 46.0163 59 30 59C13.9837 59 1 46.0163 1 30C1 13.9837 13.9837 1 30 1C46.0163 1 59 13.9837 59 30Z" stroke="#122B36" stroke-width="2"/>
<path d="M43.0518 21.9146L43.7422 22.638L42.7083 20.9754L43.0518 21.9146ZM31.0089 25.6076L31.2508 24.6373L31.0089 25.6076ZM24.4438 28.7274C23.6935 31.7366 25.5247 34.7842 28.5339 35.5345L29.0177 33.5939C27.0803 33.1109 25.9013 31.1487 26.3844 29.2113L24.4438 28.7274ZM28.5339 35.5345C31.543 36.2848 34.5907 34.4536 35.3409 31.4444L33.4003 30.9606C32.9173 32.898 30.9551 34.077 29.0177 33.5939L28.5339 35.5345ZM35.3409 31.4444C35.324 31.5122 35.3115 31.5083 35.3774 31.3997C35.4325 31.3088 35.5172 31.1854 35.6358 31.0284C35.8723 30.7153 36.2056 30.3185 36.6127 29.8607C37.4247 28.9477 38.4854 27.8422 39.546 26.7675C40.6045 25.695 41.6539 24.6622 42.4393 23.897C42.8319 23.5146 43.158 23.1994 43.3859 22.98C43.4998 22.8703 43.5891 22.7846 43.6498 22.7264C43.6802 22.6973 43.7034 22.6751 43.719 22.6602C43.7268 22.6527 43.7326 22.6471 43.7365 22.6434C43.7385 22.6415 43.7399 22.6402 43.7409 22.6392C43.7413 22.6388 43.7417 22.6385 43.7419 22.6382C43.742 22.6381 43.7421 22.6381 43.7422 22.638C43.7422 22.638 43.7422 22.638 43.0518 21.9146C42.3614 21.1911 42.3613 21.1912 42.3612 21.1913C42.3612 21.1913 42.361 21.1915 42.3609 21.1916C42.3606 21.1919 42.3602 21.1923 42.3597 21.1928C42.3586 21.1938 42.357 21.1953 42.355 21.1973C42.3508 21.2012 42.3447 21.2071 42.3367 21.2148C42.3206 21.2301 42.2969 21.2528 42.266 21.2824C42.2042 21.3417 42.1137 21.4285 41.9986 21.5393C41.7684 21.7611 41.4394 22.079 41.0437 22.4645C40.2526 23.2352 39.1933 24.2777 38.1225 25.3627C37.0538 26.4455 35.9647 27.5798 35.1182 28.5316C34.6961 29.0062 34.323 29.4482 34.0399 29.8229C33.8987 30.0098 33.7703 30.1926 33.667 30.363C33.5744 30.5157 33.4583 30.7283 33.4003 30.9606L35.3409 31.4444ZM43.0518 21.9146C42.7083 20.9754 42.7083 20.9754 42.7082 20.9754C42.7081 20.9755 42.708 20.9755 42.7079 20.9755C42.7076 20.9757 42.7071 20.9758 42.7065 20.9761C42.7053 20.9765 42.7034 20.9772 42.7008 20.9781C42.6957 20.98 42.688 20.9828 42.6779 20.9865C42.6575 20.9939 42.6272 21.005 42.5875 21.0194C42.5082 21.0483 42.3914 21.0906 42.2421 21.1445C41.9437 21.2523 41.5156 21.4061 40.9983 21.5898C39.9631 21.9574 38.5723 22.4439 37.147 22.921C35.7189 23.3991 34.2679 23.8636 33.1083 24.1897C32.5266 24.3532 32.0349 24.4772 31.6636 24.551C31.4771 24.5881 31.338 24.6091 31.2424 24.618C31.1184 24.6295 31.1501 24.6122 31.2508 24.6373L30.767 26.5779C31.0124 26.6391 31.2648 26.6245 31.4274 26.6094C31.6184 26.5917 31.8319 26.5567 32.0538 26.5126C32.4994 26.424 33.048 26.2842 33.6496 26.115C34.8565 25.7757 36.3439 25.2989 37.7818 24.8176C39.2226 24.3354 40.6255 23.8445 41.6675 23.4745C42.1887 23.2895 42.6201 23.1344 42.9215 23.0256C43.0722 22.9712 43.1903 22.9283 43.271 22.899C43.3113 22.8843 43.3423 22.8731 43.3632 22.8654C43.3736 22.8616 43.3816 22.8587 43.387 22.8567C43.3897 22.8558 43.3917 22.855 43.3931 22.8545C43.3938 22.8542 43.3943 22.854 43.3947 22.8539C43.3949 22.8538 43.3951 22.8538 43.3951 22.8538C43.3953 22.8537 43.3953 22.8537 43.0518 21.9146ZM31.2508 24.6373C28.2417 23.8871 25.194 25.7183 24.4438 28.7274L26.3844 29.2113C26.8674 27.2739 28.8296 26.0949 30.767 26.5779L31.2508 24.6373ZM30 32.5383C31.4019 32.5383 32.5384 31.4018 32.5384 29.9999H30.5384C30.5384 30.2972 30.2974 30.5383 30 30.5383V32.5383ZM32.5384 29.9999C32.5384 28.5979 31.4019 27.4614 30 27.4614V29.4614C30.2974 29.4614 30.5384 29.7025 30.5384 29.9999H32.5384ZM30 27.4614C28.598 27.4614 27.4615 28.5979 27.4615 29.9999H29.4615C29.4615 29.7025 29.7026 29.4614 30 29.4614V27.4614ZM27.4615 29.9999C27.4615 31.4018 28.598 32.5383 30 32.5383V30.5383C29.7026 30.5383 29.4615 30.2972 29.4615 29.9999H27.4615Z" fill="#122B36"/>
</svg>
