<svg width="30" height="30" viewBox="0 0 30 30" fill="none" xmlns="http://www.w3.org/2000/svg">
<path opacity="0.304744" fill-rule="evenodd" clip-rule="evenodd" d="M17.0835 9.1415C15.774 9.618 14.9465 10.847 15.0405 12.192L15.072 12.711L14.548 12.6475C12.6415 12.404 10.9755 11.578 9.561 10.19L8.8695 9.5015L8.6915 10.01C8.3145 11.1435 8.5555 12.3405 9.341 13.1455C9.76 13.5905 9.6655 13.654 8.943 13.389C8.6915 13.3045 8.4715 13.241 8.4505 13.2725C8.3775 13.347 8.6285 14.3105 8.8275 14.692C9.1 15.222 9.655 15.7405 10.263 16.048L10.7765 16.2915L10.169 16.302C9.5825 16.302 9.5615 16.3125 9.6245 16.5355C9.834 17.224 10.6615 17.955 11.5835 18.273L12.233 18.495L11.6675 18.834C10.8295 19.322 9.8445 19.597 8.8595 19.6175C8.3875 19.628 8 19.6705 8 19.7025C8 19.808 9.2785 20.401 10.022 20.6345C12.2535 21.323 14.9045 21.026 16.895 19.8505C18.3095 19.0135 19.7235 17.3505 20.384 15.74C20.7405 14.8825 21.0965 13.3145 21.0965 12.563C21.0965 12.0755 21.128 12.012 21.7145 11.4295C22.0605 11.0905 22.385 10.72 22.448 10.614C22.553 10.4125 22.542 10.4125 22.008 10.5925C21.1175 10.9105 20.9915 10.868 21.432 10.3915C21.7565 10.0525 22.1445 9.438 22.1445 9.258C22.1445 9.2265 21.9875 9.279 21.809 9.3745C21.6205 9.4805 21.2015 9.6395 20.887 9.7345L20.3215 9.915L19.808 9.565C19.525 9.3745 19.1275 9.1625 18.9175 9.099C18.383 8.951 17.5655 8.972 17.0835 9.1415ZM15 30C6.716 30 0 23.284 0 15C0 6.7155 6.716 0 15 0C23.284 0 30 6.7155 30 15C30 23.284 23.284 30 15 30Z" fill="white"/>
</svg>
