<svg width="24" height="19" viewBox="0 0 24 19" fill="none" xmlns="http://www.w3.org/2000/svg">
<path fill-rule="evenodd" clip-rule="evenodd" d="M24 2.24911C23.1177 2.63116 22.1682 2.88887 21.1719 3.0042C22.1891 2.41095 22.9691 1.47125 23.3369 0.350252C22.386 0.90031 21.3322 1.29945 20.2102 1.51491C19.3123 0.582805 18.0325 0 16.6163 0C13.8973 0 11.6928 2.14755 11.6928 4.79675C11.6928 5.17215 11.7362 5.53807 11.8205 5.88974C7.72815 5.68946 4.09963 3.78016 1.67103 0.878004C1.24718 1.5861 1.00457 2.41 1.00457 3.2899C1.00457 4.95384 1.8737 6.42224 3.19493 7.28221C2.38816 7.25706 1.62865 7.04112 0.964619 6.68185C0.964131 6.70178 0.964131 6.72219 0.964131 6.74259C0.964131 9.06622 2.66147 11.0045 4.9142 11.4458C4.50107 11.555 4.06601 11.6139 3.61683 11.6139C3.29919 11.6139 2.9908 11.584 2.69021 11.5275C3.31722 13.433 5.13538 14.8202 7.28969 14.8587C5.60453 16.1453 3.48188 16.9123 1.17459 16.9123C0.777541 16.9123 0.38536 16.8895 0 16.8449C2.17965 18.2069 4.76755 19 7.5479 19C16.6051 19 21.5573 11.6912 21.5573 5.3525C21.5573 5.14463 21.5534 4.93723 21.5436 4.73125C22.5053 4.05638 23.3404 3.21112 24 2.24911Z" fill="#122B36"/>
</svg>
