<svg width="40" height="36" viewBox="0 0 40 36" fill="none" xmlns="http://www.w3.org/2000/svg">
<path fill-rule="evenodd" clip-rule="evenodd" d="M32 18.6667V26.6667H33.3333V18.6667H36V17.3333H29.3333V18.6667H32ZM24 22L21.3333 17.3333H22.6667L24.6667 20.8333L26.6667 17.3333H28L25.3333 22L28 26.6667H26.6667L24.6667 23.1667L22.6667 26.6667H21.3333L24 22ZM16 18.6667V26.6667H17.3333V18.6667H20V17.3333H13.3333V18.6667H16ZM13.3267 14.6667C11.8573 14.6667 10.6667 15.8667 10.6667 17.3227V26.6773C10.6667 28.144 11.8693 29.3333 13.3267 29.3333H36.008C37.476 29.3333 38.6667 28.1333 38.6667 26.6773V17.3227C38.6667 15.856 37.464 14.6667 36.008 14.6667H13.3267ZM17.3333 2V7.988C17.3333 8.73067 17.9347 9.33333 18.6627 9.33333H23.6L17.3333 2ZM24 30.6667V33.3427C24 34.0733 23.404 34.6667 22.6667 34.6667H2.66667C1.94 34.6667 1.33333 34.0733 1.33333 33.34V2.66133C1.33333 1.94 1.928 1.33333 2.66133 1.33333H16V7.992C16 9.484 17.1933 10.6667 18.664 10.6667H24V13.3333H13.3427C11.128 13.3333 9.33333 15.1227 9.33333 17.332V26.668C9.33333 28.876 11.1147 30.6667 13.3427 30.6667H24ZM25.3333 13.3333V9.33333L17.3333 0H2.67067C1.19467 0 0 1.19733 0 2.676V33.3227C0 34.8027 1.188 36 2.664 36H22.6707C24.14 36 25.3333 34.8027 25.3333 33.3453V30.6667H35.9907C38.204 30.6667 40 28.8773 40 26.668V17.332C40 15.124 38.2187 13.3333 35.9907 13.3333H25.3333Z" fill="#122B36"/>
</svg>
