<svg width="60" height="61" viewBox="0 0 60 61" fill="none" xmlns="http://www.w3.org/2000/svg">
<path fill-rule="evenodd" clip-rule="evenodd" d="M0 0H60V60H0V0Z" fill="white"/>
<mask id="path-2-inside-1" fill="white">
  <path fill-rule="evenodd" clip-rule="evenodd" d="M31.467 12.8722C34.7683 12.5154 37.3361 9.77878 37.3361 6.45581C37.3361 2.89035 34.3799 0 30.7333 0C27.0866 0 24.1304 2.89035 24.1304 6.45581C24.1304 9.77881 26.6982 12.5154 29.9997 12.8722V18.6501H10.7183C8.29183 18.6501 6.21562 20.3923 5.79424 22.7818L0.221138 54.3859C-0.318732 57.4474 2.03642 60.2542 5.14517 60.2542H54.8542C57.963 60.2542 60.3181 57.4474 59.7782 54.3859L54.2051 22.7818C53.7838 20.3923 51.7076 18.6501 49.2811 18.6501H31.467V12.8722Z"/>
</mask>
  <path d="M31.467 12.8722L31.252 10.8838L29.467 11.0768V12.8722H31.467ZM29.9997 12.8722H31.9997V11.0767L30.2146 10.8838L29.9997 12.8722ZM29.9997 18.6501V20.6501H31.9997V18.6501H29.9997ZM5.79424 22.7818L3.82463 22.4345L3.82463 22.4345L5.79424 22.7818ZM0.221138 54.3859L2.19075 54.7332H2.19075L0.221138 54.3859ZM59.7782 54.3859L61.7478 54.0386L59.7782 54.3859ZM54.2051 22.7818L56.1747 22.4345L54.2051 22.7818ZM31.467 18.6501H29.467V20.6501H31.467V18.6501ZM31.6819 14.8606C35.9515 14.3991 39.3361 10.8469 39.3361 6.45581H35.3361C35.3361 8.71062 33.5851 10.6316 31.252 10.8838L31.6819 14.8606ZM39.3361 6.45581C39.3361 1.74355 35.4418 -2 30.7333 -2V2C33.3181 2 35.3361 4.03715 35.3361 6.45581H39.3361ZM30.7333 -2C26.0247 -2 22.1304 1.74355 22.1304 6.45581H26.1304C26.1304 4.03715 28.1485 2 30.7333 2V-2ZM22.1304 6.45581C22.1304 10.847 25.5151 14.3992 29.7848 14.8606L30.2146 10.8838C27.8814 10.6316 26.1304 8.71063 26.1304 6.45581H22.1304ZM27.9997 12.8722V18.6501H31.9997V12.8722H27.9997ZM29.9997 16.6501H10.7183V20.6501H29.9997V16.6501ZM10.7183 16.6501C7.32125 16.6501 4.41457 19.0891 3.82463 22.4345L7.76385 23.1292C8.01668 21.6954 9.26241 20.6501 10.7183 20.6501V16.6501ZM3.82463 22.4345L-1.74847 54.0386L2.19075 54.7332L7.76385 23.1292L3.82463 22.4345ZM-1.74847 54.0386C-2.50429 58.3247 0.792935 62.2542 5.14517 62.2542V58.2542C3.27991 58.2542 1.86683 56.5701 2.19075 54.7332L-1.74847 54.0386ZM5.14517 62.2542H54.8542V58.2542H5.14517V62.2542ZM54.8542 62.2542C59.2065 62.2542 62.5037 58.3247 61.7478 54.0386L57.8086 54.7332C58.1325 56.5701 56.7195 58.2542 54.8542 58.2542V62.2542ZM61.7478 54.0386L56.1747 22.4345L52.2355 23.1292L57.8086 54.7332L61.7478 54.0386ZM56.1747 22.4345C55.5848 19.0891 52.6781 16.6501 49.2811 16.6501V20.6501C50.737 20.6501 51.9827 21.6954 52.2355 23.1292L56.1747 22.4345ZM49.2811 16.6501H31.467V20.6501H49.2811V16.6501ZM33.467 18.6501V12.8722H29.467V18.6501H33.467Z" fill="#122B36" mask="url(#path-2-inside-1)"/>
</svg>
