<svg width="28" height="21" viewBox="0 0 28 21" fill="none" xmlns="http://www.w3.org/2000/svg">
<path d="M5.576 20.552C3.95467 20.552 2.71733 19.9333 1.864 18.696C1.01067 17.4587 0.584 15.7093 0.584 13.448C0.584 7.85867 3.22933 3.67733 8.52 0.903999L10.312 4.168C8.52 5.192 7.176 6.32267 6.28 7.56C5.42667 8.79733 5 10.3547 5 12.232C5.128 12.1893 5.32 12.168 5.576 12.168C6.728 12.168 7.70933 12.5307 8.52 13.256C9.37333 13.9387 9.8 14.8987 9.8 16.136C9.8 17.5013 9.39467 18.5893 8.584 19.4C7.816 20.168 6.81333 20.552 5.576 20.552ZM23.201 20.552C21.5797 20.552 20.3423 19.9333 19.489 18.696C18.6357 17.4587 18.209 15.7093 18.209 13.448C18.209 7.85867 20.8543 3.67733 26.145 0.903999L27.937 4.168C26.145 5.192 24.801 6.32267 23.905 7.56C23.0517 8.79733 22.625 10.3547 22.625 12.232C22.753 12.1893 22.945 12.168 23.201 12.168C24.353 12.168 25.3343 12.5307 26.145 13.256C26.9983 13.9387 27.425 14.8987 27.425 16.136C27.425 17.5013 27.0197 18.5893 26.209 19.4C25.441 20.168 24.4383 20.552 23.201 20.552Z" fill="#102029"/>
</svg>
